<svg width="133" height="40" viewBox="0 0 133 40" fill="none" xmlns="http://www.w3.org/2000/svg">
<g clip-path="url(#clip0_1210_6431)">
<path d="M6.66922 0.603129C5.8702 0.605847 5.07955 0.763956 4.3424 1.06843C3.60525 1.3729 2.93606 1.81778 2.37301 2.37765C1.80997 2.93753 1.3641 3.60144 1.06088 4.33148C0.757657 5.06152 0.603011 5.84339 0.605772 6.63245V33.3676C0.602879 34.1566 0.757395 34.9385 1.0605 35.6686C1.3636 36.3987 1.80935 37.0627 2.3723 37.6226C2.93525 38.1826 3.60438 38.6276 4.34148 38.9322C5.07857 39.2368 5.8692 39.395 6.66822 39.3979H126.188C126.987 39.395 127.778 39.2368 128.515 38.9322C129.252 38.6276 129.921 38.1826 130.484 37.6226C131.047 37.0627 131.493 36.3987 131.796 35.6686C132.099 34.9385 132.253 34.1566 132.25 33.3676V6.63245C132.256 5.03904 131.62 3.50869 130.484 2.378C129.347 1.24731 127.802 0.608879 126.188 0.603129H6.66922ZM6.66922 0H126.188C127.963 0.00731694 129.662 0.709919 130.912 1.95349C132.163 3.19706 132.862 4.87992 132.857 6.63245V33.3676C132.862 35.1201 132.163 36.8029 130.912 38.0465C129.662 39.2901 127.963 39.9927 126.188 40H6.66922C4.89458 39.9927 3.19543 39.2901 1.94497 38.0465C0.694506 36.8029 -0.00502095 35.1201 2.71332e-05 33.3676V6.63245C-0.00502095 4.87992 0.694506 3.19706 1.94497 1.95349C3.19543 0.709919 4.89458 0.00731694 6.66922 0Z" fill="white"/>
<path d="M29.9676 19.7728C29.9791 18.8316 30.2319 17.9086 30.7025 17.0901C31.1731 16.2715 31.846 15.5841 32.6585 15.0919C32.1424 14.3647 31.4619 13.7661 30.6709 13.3437C29.8799 12.9214 29.0001 12.6868 28.1014 12.6587C26.1852 12.4612 24.3259 13.7919 23.3494 13.7919C22.3498 13.7919 20.8504 12.6784 19.2291 12.7061C18.1814 12.7396 17.1603 13.0405 16.2653 13.5796C15.3704 14.1186 14.632 14.8773 14.1222 15.7819C11.9152 19.5556 13.5615 25.1043 15.6766 28.1555C16.7341 29.6509 17.9756 31.3142 19.5899 31.2599C21.1743 31.1957 21.765 30.263 23.6752 30.263C25.5694 30.263 26.1242 31.2599 27.7735 31.2234C29.4728 31.1967 30.5423 29.721 31.5649 28.2147C32.3244 27.1496 32.9093 25.973 33.2982 24.7282C32.3121 24.3158 31.4706 23.6261 30.8784 22.745C30.2862 21.864 29.9694 20.8303 29.9676 19.7728Z" fill="white"/>
<path d="M26.8471 10.6504C27.7736 9.55281 28.2301 8.14161 28.1195 6.7168C26.7042 6.86331 25.3969 7.53119 24.4581 8.58734C23.5311 9.62954 23.0612 10.9926 23.1516 12.3769C23.8598 12.3842 24.5604 12.2327 25.2005 11.9336C25.8407 11.6346 26.4037 11.1958 26.8471 10.6504Z" fill="white"/>
<path d="M52.9777 31.2269H50.7657L49.5492 27.461H45.336L44.1814 31.2229H42.0273L46.2016 18.416H48.7805L52.9777 31.2269ZM49.1863 25.8875L48.0868 22.5422C47.9688 22.2006 47.7529 21.3971 47.4331 20.1306H47.3941C47.2661 20.6755 47.0605 21.4794 46.7773 22.5422L45.7008 25.8875H49.1863Z" fill="white"/>
<path d="M63.7122 26.4966C63.788 27.8559 63.3256 29.1911 62.4228 30.22C62.0604 30.6131 61.6169 30.925 61.1223 31.1347C60.6276 31.3445 60.0932 31.4472 59.555 31.4361C59.0336 31.4774 58.5107 31.3772 58.0428 31.1464C57.5749 30.9155 57.1797 30.5628 56.9001 30.1262H56.8611V34.9897H54.783V25.0317C54.783 24.0446 54.7574 23.0314 54.7061 21.9923H56.5333L56.6492 23.4553H56.6882C57.0034 22.9796 57.4266 22.5832 57.9243 22.2975C58.4219 22.0118 58.9802 21.8448 59.5547 21.8097C60.1292 21.7746 60.7042 21.8724 61.2336 22.0954C61.7631 22.3184 62.2326 22.6603 62.6047 23.094C63.3784 24.0586 63.7718 25.2674 63.7122 26.4966ZM61.5952 26.5706C61.628 25.7846 61.4125 25.0081 60.9784 24.3486C60.7781 24.0594 60.5077 23.8244 60.1919 23.6649C59.876 23.5055 59.5248 23.4266 59.1702 23.4355C58.6602 23.4353 58.1666 23.6133 57.7768 23.9379C57.3601 24.274 57.0717 24.7402 56.9591 25.2597C56.9008 25.4637 56.8672 25.6738 56.8591 25.8855V27.4264C56.8418 28.051 57.0651 28.6588 57.4839 29.1272C57.6866 29.3537 57.9375 29.533 58.2187 29.6525C58.4999 29.7719 58.8043 29.8286 59.1102 29.8182C59.4656 29.8325 59.8191 29.7587 60.1382 29.6035C60.4574 29.4483 60.7321 29.2167 60.9374 28.9298C61.4043 28.2322 61.634 27.4058 61.5931 26.5706H61.5952Z" fill="white"/>
<path d="M74.4647 26.4966C74.5409 27.8562 74.078 29.1916 73.1742 30.22C72.8124 30.6131 72.3695 30.9251 71.8754 31.1348C71.3812 31.3446 70.8472 31.4473 70.3094 31.4361C69.7879 31.4779 69.2649 31.3779 68.7969 31.147C68.3289 30.916 67.9338 30.5631 67.6545 30.1262H67.6155V34.9897H65.5374V25.0317C65.5374 24.0446 65.5118 23.0314 65.4604 21.9923H67.2877L67.4036 23.4553H67.4426C67.7578 22.9796 68.181 22.5832 68.6787 22.2975C69.1763 22.0118 69.7346 21.8448 70.3091 21.8097C70.8837 21.7746 71.4585 21.8724 71.988 22.0954C72.5175 22.3184 72.987 22.6603 73.3591 23.094C74.1307 24.0596 74.5233 25.2679 74.4647 26.4966ZM72.3475 26.5706C72.3804 25.7846 72.1649 25.0081 71.7308 24.3486C71.5307 24.0595 71.2604 23.8246 70.9448 23.6651C70.6291 23.5056 70.278 23.4267 69.9236 23.4355C69.4117 23.4347 68.916 23.6126 68.5242 23.9379C68.1081 24.2742 67.8204 24.7404 67.7085 25.2597C67.6511 25.4639 67.6175 25.6738 67.6085 25.8855V27.4264C67.5921 28.0507 67.8148 28.6581 68.2323 29.1272C68.4353 29.3539 68.6866 29.5334 68.9681 29.6528C69.2496 29.7723 69.5544 29.8288 69.8606 29.8182C70.216 29.8324 70.5694 29.7585 70.8886 29.6034C71.2077 29.4482 71.4825 29.2167 71.6878 28.9298C72.1561 28.2326 72.3872 27.4062 72.3475 26.5706Z" fill="white"/>
<path d="M86.4895 27.6348C86.5072 28.1354 86.4131 28.6336 86.214 29.0942C86.0148 29.5548 85.7153 29.9665 85.3369 30.3C84.3433 31.0976 83.0825 31.4975 81.8044 31.4204C80.6303 31.4751 79.4646 31.1985 78.4438 30.6228L78.9256 28.9121C79.8287 29.455 80.8671 29.7388 81.9244 29.7314C82.5771 29.7694 83.2232 29.584 83.7536 29.2063C83.9658 29.04 84.1355 28.8267 84.2488 28.5837C84.3622 28.3408 84.4162 28.0749 84.4064 27.8076C84.4121 27.5641 84.3672 27.3221 84.2745 27.0965C84.1819 26.8709 84.0434 26.6663 83.8676 26.4956C83.3458 26.0487 82.7364 25.7126 82.0773 25.5085C79.807 24.6728 78.6721 23.4491 78.6728 21.8374C78.6606 21.345 78.7617 20.8562 78.9684 20.4079C79.1751 19.9596 79.4821 19.5634 79.8663 19.2492C80.7643 18.5415 81.8935 18.1827 83.0409 18.2404C84.0573 18.2055 85.067 18.4145 85.9836 18.8494L85.4639 20.5276C84.7013 20.1253 83.8474 19.9215 82.983 19.9353C82.3655 19.8988 81.7562 20.0887 81.2717 20.4683C81.1056 20.6131 80.9731 20.7916 80.8834 20.9916C80.7937 21.1916 80.7488 21.4084 80.7519 21.6272C80.7475 21.8677 80.7993 22.1061 80.9033 22.3237C81.0073 22.5413 81.1607 22.7323 81.3516 22.8818C81.9233 23.3083 82.5604 23.6415 83.2388 23.869C84.1698 24.1938 85.0121 24.727 85.6998 25.4266C86.2317 26.0403 86.5132 26.8274 86.4895 27.6348Z" fill="white"/>
<path d="M93.3577 23.5323H91.0687V28.0158C91.0687 29.1559 91.4685 29.7264 92.2792 29.7264C92.5897 29.7321 92.8997 29.6989 93.2018 29.6278L93.2598 31.1864C92.7386 31.3546 92.1915 31.4315 91.6435 31.4134C91.2877 31.4329 90.9318 31.3769 90.5999 31.249C90.268 31.1211 89.9676 30.9244 89.7192 30.6721C89.1884 29.9535 88.9421 29.0681 89.0265 28.1826V23.5274H87.6621V21.9884H89.0265V20.2965L91.0687 19.6895V21.9884H93.3577V23.5323Z" fill="white"/>
<path d="M103.691 26.5339C103.742 27.8111 103.302 29.06 102.459 30.0303C102.026 30.497 101.495 30.8646 100.903 31.1074C100.311 31.3502 99.673 31.4624 99.0326 31.4359C98.4193 31.4629 97.8075 31.3559 97.2408 31.1227C96.6741 30.8895 96.1664 30.5357 95.754 30.0865C94.9237 29.1476 94.4865 27.9317 94.5315 26.6859C94.4787 25.3978 94.93 24.1391 95.792 23.1708C96.2239 22.7128 96.7517 22.3532 97.3386 22.1171C97.9255 21.881 98.5575 21.774 99.1906 21.8036C99.8083 21.7786 100.424 21.8861 100.996 22.1189C101.567 22.3517 102.081 22.7042 102.501 23.152C103.319 24.0885 103.745 25.2981 103.691 26.5339ZM101.535 26.601C101.558 25.8338 101.365 25.0753 100.978 24.4097C100.803 24.0713 100.536 23.7882 100.206 23.5929C99.8759 23.3976 99.4971 23.2979 99.1126 23.3051C98.722 23.2943 98.3361 23.3921 97.9991 23.5874C97.6621 23.7827 97.3874 24.0676 97.2064 24.4097C96.8164 25.0878 96.6237 25.8591 96.6496 26.6386C96.6266 27.4058 96.8194 28.1643 97.2064 28.8299C97.3889 29.1655 97.6604 29.4456 97.992 29.6402C98.3235 29.8348 98.7025 29.9366 99.0881 29.9345C99.4738 29.9325 99.8516 29.8267 100.181 29.6287C100.51 29.4306 100.779 29.1476 100.958 28.8102C101.355 28.1412 101.554 27.3761 101.535 26.601Z" fill="white"/>
<path d="M110.443 23.7968C110.228 23.7584 110.009 23.7392 109.79 23.7396C109.46 23.724 109.131 23.7906 108.834 23.9335C108.537 24.0763 108.281 24.2907 108.09 24.5569C107.727 25.096 107.546 25.7342 107.571 26.3811V31.2268H105.494L105.514 24.8994C105.514 23.8347 105.488 22.8659 105.437 21.9933H107.245L107.322 23.7593H107.38C107.575 23.1826 107.936 22.6743 108.418 22.2964C108.851 21.9766 109.377 21.8035 109.918 21.8028C110.092 21.8015 110.266 21.8144 110.437 21.8413L110.443 23.7968Z" fill="white"/>
<path d="M119.735 26.1724C119.74 26.4841 119.715 26.7956 119.658 27.1023H113.431C113.416 27.4946 113.489 27.8852 113.645 28.2466C113.8 28.6079 114.034 28.931 114.33 29.193C114.91 29.6418 115.633 29.8708 116.368 29.8386C117.229 29.8501 118.085 29.7017 118.89 29.4013L119.215 30.8257C118.221 31.2277 117.153 31.4223 116.079 31.3972C115.452 31.4314 114.825 31.3368 114.237 31.1191C113.649 30.9014 113.113 30.5655 112.663 30.1327C112.239 29.6771 111.91 29.1427 111.697 28.5606C111.484 27.9784 111.39 27.3602 111.421 26.742C111.375 25.484 111.785 24.2511 112.578 23.2654C112.967 22.7823 113.465 22.3965 114.034 22.1392C114.602 21.882 115.223 21.7605 115.847 21.7847C116.443 21.7517 117.038 21.8706 117.574 22.1298C118.11 22.3891 118.569 22.7802 118.908 23.2654C119.481 24.127 119.77 25.1424 119.735 26.1724ZM117.754 25.6393C117.782 25.0853 117.643 24.5355 117.354 24.06C117.182 23.7827 116.938 23.5567 116.646 23.4062C116.355 23.2556 116.027 23.1861 115.699 23.2052C115.375 23.1995 115.054 23.2729 114.766 23.4187C114.477 23.5645 114.23 23.7784 114.045 24.0412C113.691 24.5049 113.478 25.0585 113.431 25.6374L117.754 25.6393Z" fill="white"/>
<path d="M48.4956 10.2965C48.5302 10.7718 48.4555 11.2487 48.277 11.6914C48.0986 12.1342 47.821 12.5314 47.465 12.8532C46.6843 13.426 45.7227 13.7059 44.7521 13.6428C44.2533 13.6471 43.7546 13.6217 43.2588 13.5668V7.38352C43.8407 7.29306 44.429 7.24916 45.0181 7.25224C45.9191 7.18693 46.8141 7.44141 47.542 7.96986C47.8669 8.26269 48.1211 8.6237 48.2862 9.02633C48.4512 9.42896 48.5228 9.86297 48.4956 10.2965ZM47.419 10.3231C47.4565 10.0143 47.4222 9.70116 47.3189 9.40734C47.2156 9.11353 47.046 8.84681 46.8228 8.62736C46.5996 8.40791 46.3288 8.24148 46.0308 8.14073C45.7329 8.03998 45.4156 8.00759 45.103 8.0459C44.8273 8.04103 44.5518 8.06283 44.2804 8.11103V12.8147C44.5094 12.8395 44.7398 12.8491 44.9701 12.8433C45.3001 12.8639 45.6309 12.8173 45.942 12.7064C46.253 12.5955 46.5377 12.4227 46.7783 12.1987C47.0051 11.9433 47.1785 11.6461 47.2885 11.3242C47.3985 11.0023 47.4428 10.662 47.419 10.3231Z" fill="white"/>
<path d="M54.2042 11.2868C54.2307 11.9132 54.0165 12.5263 53.6045 13.0034C53.3921 13.2327 53.1314 13.4134 52.8408 13.5328C52.5502 13.6521 52.2367 13.7073 51.9222 13.6944C51.6207 13.7075 51.32 13.655 51.0413 13.5405C50.7627 13.426 50.513 13.2524 50.3099 13.032C49.9029 12.5696 49.6886 11.9721 49.7101 11.3598C49.6837 10.7276 49.9049 10.1096 50.3279 9.63431C50.5397 9.40943 50.7986 9.23277 51.0865 9.11653C51.3744 9.00028 51.6844 8.94728 51.9952 8.96115C52.2986 8.94879 52.6012 9.00157 52.882 9.11592C53.1628 9.23028 53.4151 9.40344 53.6215 9.62346C54.0225 10.0847 54.2308 10.6794 54.2042 11.2868ZM53.1447 11.3184C53.1556 10.9418 53.0612 10.5695 52.8718 10.2424C52.7858 10.0763 52.6542 9.9373 52.4922 9.84132C52.3302 9.74534 52.1441 9.69622 51.9552 9.6995C51.7633 9.69434 51.5737 9.74251 51.4081 9.83849C51.2425 9.93447 51.1076 10.0744 51.0186 10.2424C50.8266 10.5753 50.7318 10.9542 50.7447 11.3371C50.734 11.7141 50.8287 12.0868 51.0186 12.4141C51.1074 12.58 51.241 12.7185 51.4045 12.8143C51.568 12.9101 51.7551 12.9595 51.9452 12.957C52.1348 12.9584 52.3211 12.9075 52.4831 12.81C52.645 12.7125 52.7762 12.5723 52.8618 12.4052C53.0569 12.076 53.1549 11.6996 53.1447 11.3184Z" fill="white"/>
<path d="M61.8588 9.05469L60.4215 13.5955H59.4868L58.8921 11.6212C58.7432 11.1396 58.6197 10.6506 58.5223 10.1563H58.5033C58.4152 10.6527 58.2916 11.1422 58.1334 11.6212L57.5017 13.5955H56.5551L55.2026 9.05469H56.2532L56.773 11.2126C56.8969 11.7219 57.0009 12.2086 57.0848 12.6676H57.1038C57.1791 12.2892 57.3051 11.8071 57.4817 11.2214L58.1344 9.05668H58.967L59.5908 11.176C59.7421 11.6926 59.8654 12.1904 59.9606 12.6695H59.9876C60.065 12.1666 60.1691 11.6681 60.2995 11.176L60.8582 9.05668H61.8578L61.8588 9.05469Z" fill="white"/>
<path d="M67.1548 13.5912H66.1322V10.9931C66.1322 10.1926 65.8253 9.7928 65.2076 9.7928C65.0673 9.78852 64.9279 9.81597 64.8 9.87311C64.6722 9.93026 64.5592 10.0156 64.4699 10.1225C64.282 10.3384 64.1807 10.6147 64.185 10.8993V13.5902H63.1644V10.3515C63.1644 9.95664 63.1505 9.52034 63.1265 9.05343H64.0261L64.0741 9.76316H64.1011C64.226 9.53786 64.4087 9.34894 64.6308 9.21532C64.9095 9.04649 65.2306 8.95855 65.5574 8.96161C65.7542 8.95568 65.9501 8.98902 66.1336 9.05957C66.317 9.13013 66.4841 9.23647 66.625 9.37227C66.8132 9.57346 66.9573 9.8108 67.0485 10.0695C67.1396 10.3281 67.1758 10.6026 67.1548 10.8757V13.5912Z" fill="white"/>
<path d="M69.9711 13.5922H68.9512V6.97852H69.9711V13.5922Z" fill="white"/>
<path d="M75.983 11.2868C76.0094 11.9132 75.7952 12.5264 75.3832 13.0034C75.1706 13.2325 74.9099 13.413 74.6193 13.5324C74.3288 13.6517 74.0154 13.707 73.7009 13.6944C73.3994 13.7078 73.0986 13.6555 72.8199 13.541C72.5412 13.4265 72.2915 13.2527 72.0886 13.032C71.6818 12.5696 71.4675 11.9721 71.4888 11.3599C71.463 10.7274 71.685 10.1094 72.1086 9.63437C72.3203 9.40933 72.5791 9.23254 72.8671 9.11629C73.155 9.00003 73.4651 8.94714 73.7759 8.9612C74.0793 8.94924 74.3817 9.0022 74.6625 9.11653C74.9432 9.23086 75.1955 9.40382 75.4022 9.62352C75.8025 10.0851 76.0101 10.6797 75.983 11.2868ZM74.9234 11.3184C74.934 10.9417 74.8392 10.5694 74.6495 10.2425C74.5635 10.0763 74.432 9.93736 74.2699 9.84138C74.1079 9.7454 73.9218 9.69628 73.7329 9.69956C73.5412 9.69431 73.3519 9.74242 73.1866 9.83843C73.0214 9.93444 72.8868 10.0745 72.7983 10.2425C72.6063 10.5754 72.5115 10.9543 72.5244 11.3372C72.5137 11.7142 72.6084 12.0869 72.7983 12.4141C72.8868 12.5804 73.0203 12.7191 73.1838 12.815C73.3474 12.9108 73.5347 12.96 73.7249 12.957C73.9143 12.9584 74.1003 12.9075 74.2619 12.81C74.4235 12.7125 74.5543 12.5723 74.6395 12.4052C74.8361 12.0766 74.9348 11.7 74.9244 11.3184H74.9234Z" fill="white"/>
<path d="M80.9248 13.5909H80.0082L79.9312 13.0677H79.9042C79.7499 13.2731 79.5466 13.4377 79.3124 13.5468C79.0783 13.656 78.8204 13.7064 78.5618 13.6936C78.3676 13.7015 78.1739 13.669 77.9933 13.5982C77.8127 13.5275 77.6491 13.4201 77.5132 13.283C77.3945 13.1598 77.3015 13.0147 77.2398 12.856C77.178 12.6972 77.1487 12.528 77.1534 12.358C77.1436 12.1034 77.204 11.8509 77.3281 11.6276C77.4522 11.4042 77.6353 11.2182 77.8581 11.0896C78.464 10.764 79.1509 10.6148 79.8392 10.6592V10.5773C79.8392 9.98042 79.5214 9.68163 78.8856 9.68097C78.4608 9.67316 78.0433 9.79034 77.6861 10.0176L77.4802 9.3552C77.9574 9.08021 78.5033 8.94341 79.0556 8.96039C80.2551 8.96039 80.8548 9.58553 80.8548 10.8359V12.5071C80.8498 12.8696 80.8732 13.232 80.9248 13.5909ZM79.8652 12.0323V11.3324C78.7377 11.3127 78.1739 11.6187 78.1739 12.2455C78.1666 12.3433 78.1806 12.4415 78.2151 12.5335C78.2496 12.6255 78.3037 12.7091 78.3738 12.7785C78.5112 12.8987 78.6902 12.962 78.8736 12.9553C79.0996 12.9547 79.3191 12.8808 79.4984 12.745C79.6821 12.6182 79.8089 12.4261 79.8522 12.209C79.8625 12.1506 79.8668 12.0915 79.8652 12.0323Z" fill="white"/>
<path d="M86.7293 13.5912H85.8247L85.7767 12.8628H85.7497C85.6145 13.1298 85.4022 13.3513 85.1396 13.4992C84.877 13.6472 84.5759 13.7149 84.2744 13.6939C84.0095 13.6978 83.7473 13.6418 83.5078 13.5301C83.2684 13.4183 83.058 13.2539 82.8929 13.0494C82.513 12.5758 82.3188 11.9827 82.3461 11.3791C82.3157 10.7329 82.5274 10.0982 82.9409 9.59638C83.1154 9.39391 83.333 9.23198 83.5782 9.1221C83.8234 9.01221 84.0901 8.9571 84.3593 8.96069C84.6115 8.93577 84.8659 8.9801 85.0943 9.08878C85.3227 9.19746 85.5163 9.3663 85.6538 9.57667H85.6728V6.97266H86.6943V12.3682C86.693 12.8111 86.7047 13.2188 86.7293 13.5912ZM85.6698 11.6773V10.9201C85.6714 10.8142 85.6624 10.7084 85.6428 10.6042C85.5879 10.3668 85.4584 10.1526 85.2729 9.99221C85.0848 9.82824 84.8411 9.74015 84.5902 9.74543C84.4141 9.73972 84.2395 9.77792 84.0822 9.85641C83.925 9.9349 83.7903 10.0512 83.6906 10.1946C83.4607 10.5335 83.3462 10.936 83.3637 11.3436C83.3457 11.7313 83.4555 12.1144 83.6766 12.4354C83.7762 12.5771 83.9099 12.6922 84.0657 12.7703C84.2215 12.8483 84.3945 12.8869 84.5692 12.8825C84.7239 12.8872 84.8775 12.8558 85.0176 12.791C85.1578 12.7261 85.2805 12.6297 85.3759 12.5094C85.5736 12.2768 85.6781 11.9808 85.6698 11.6773Z" fill="white"/>
<path d="M95.4619 11.2869C95.4884 11.9133 95.2742 12.5264 94.8622 13.0035C94.6497 13.2327 94.3889 13.4132 94.0984 13.5326C93.8078 13.6519 93.4943 13.7072 93.1799 13.6945C92.8784 13.7075 92.5777 13.655 92.2991 13.5405C92.0204 13.4261 91.7707 13.2525 91.5676 13.0321C91.1606 12.5697 90.9464 11.9722 90.9678 11.3599C90.942 10.7275 91.164 10.1095 91.5876 9.63441C91.7996 9.40923 92.0588 9.23235 92.3471 9.11609C92.6354 8.99983 92.9458 8.94703 93.2569 8.96125C93.56 8.94918 93.8622 9.00211 94.1426 9.11645C94.423 9.2308 94.675 9.40381 94.8812 9.62357C95.2814 10.0852 95.489 10.6798 95.4619 11.2869ZM94.4044 11.3185C94.415 10.9418 94.3202 10.5695 94.1305 10.2425C94.0441 10.0764 93.9124 9.93756 93.7502 9.84161C93.588 9.74566 93.4019 9.69648 93.2129 9.6996C93.0213 9.69482 92.8322 9.74312 92.667 9.83908C92.5018 9.93504 92.3671 10.0748 92.2783 10.2425C92.0863 10.5754 91.9915 10.9543 92.0044 11.3372C91.9936 11.7143 92.0884 12.0869 92.2783 12.4142C92.3677 12.5792 92.501 12.7171 92.6639 12.8129C92.8268 12.9087 93.013 12.9589 93.2026 12.958C93.3922 12.9571 93.5779 12.9051 93.7398 12.8077C93.9017 12.7103 94.0337 12.5712 94.1215 12.4053C94.3165 12.0761 94.4145 11.6997 94.4044 11.3185Z" fill="white"/>
<path d="M100.954 13.5912H99.9329V10.9931C99.9329 10.1929 99.6241 9.79277 99.0063 9.79277C98.8663 9.78849 98.7272 9.81598 98.5996 9.87314C98.4721 9.9303 98.3595 10.0156 98.2706 10.1224C98.0831 10.3385 97.9821 10.6148 97.9867 10.8993V13.5902H96.9652V10.3515C96.9652 9.95266 96.9532 9.51997 96.9292 9.05339H97.8288L97.8768 9.76312H97.9058C98.0305 9.53829 98.2124 9.34946 98.4336 9.21528C98.7125 9.04638 99.034 8.95844 99.3612 8.96157C99.5579 8.95582 99.7538 8.98923 99.9372 9.05978C100.121 9.13032 100.288 9.23658 100.429 9.37223C100.616 9.57378 100.76 9.81125 100.851 10.0699C100.941 10.3285 100.977 10.6027 100.956 10.8756L100.954 13.5912Z" fill="white"/>
<path d="M107.827 9.81121H106.703V12.0145C106.703 12.5751 106.903 12.8535 107.298 12.8535C107.451 12.8571 107.604 12.8412 107.753 12.8061L107.78 13.5712C107.524 13.6546 107.255 13.6927 106.986 13.6836C106.812 13.6935 106.637 13.6661 106.474 13.6035C106.311 13.5408 106.164 13.4442 106.042 13.3204C105.78 12.9683 105.657 12.5328 105.7 12.0974V9.81025H105.029V9.0531H105.7V8.22196L106.699 7.92578V9.05406H107.824V9.81121H107.827Z" fill="white"/>
<path d="M113.23 13.5922H112.208V11.0119C112.208 10.1998 111.9 9.79344 111.283 9.79278C111.064 9.78497 110.849 9.85045 110.672 9.97852C110.495 10.1066 110.367 10.2898 110.309 10.4986C110.275 10.6167 110.259 10.7391 110.261 10.8618V13.5903H109.24V6.97656H110.261V9.70988H110.28C110.422 9.47503 110.625 9.28202 110.867 9.15095C111.11 9.01987 111.385 8.95551 111.661 8.9646C111.855 8.95856 112.049 8.99193 112.229 9.06256C112.41 9.13319 112.574 9.2396 112.711 9.37525C112.896 9.58163 113.038 9.82272 113.127 10.0842C113.216 10.3457 113.252 10.6222 113.231 10.8974L113.23 13.5922Z" fill="white"/>
<path d="M118.81 11.1084C118.812 11.2615 118.799 11.4145 118.772 11.5654H115.708C115.702 11.7584 115.739 11.9504 115.815 12.1279C115.892 12.3054 116.008 12.4642 116.153 12.593C116.437 12.8131 116.792 12.9258 117.153 12.9109C117.576 12.916 117.996 12.843 118.392 12.6957L118.552 13.3975C118.063 13.5942 117.537 13.6893 117.009 13.6769C116.701 13.6935 116.394 13.6468 116.105 13.5399C115.817 13.4331 115.554 13.2683 115.334 13.056C115.125 12.8326 114.963 12.5702 114.858 12.2842C114.754 11.9982 114.708 11.6944 114.724 11.3907C114.702 10.7736 114.904 10.1691 115.294 9.68593C115.485 9.4484 115.729 9.25864 116.009 9.13207C116.288 9.0055 116.593 8.9457 116.9 8.95746C117.192 8.94211 117.483 9.00103 117.746 9.12857C118.008 9.25612 118.233 9.448 118.399 9.68593C118.683 10.1064 118.826 10.6036 118.81 11.1084ZM117.835 10.8478C117.849 10.5759 117.779 10.3064 117.636 10.0739C117.551 9.93748 117.431 9.82628 117.288 9.75221C117.144 9.67813 116.983 9.64394 116.822 9.65334C116.663 9.65072 116.505 9.6868 116.364 9.75841C116.222 9.83002 116.1 9.93498 116.009 10.064C115.838 10.293 115.734 10.5642 115.709 10.8478H117.835Z" fill="white"/>
</g>
<defs>
<clipPath id="clip0_1210_6431">
<rect width="132.857" height="40" fill="white"/>
</clipPath>
</defs>
</svg>
