<svg width="136" height="40" viewBox="0 0 136 40" fill="none" xmlns="http://www.w3.org/2000/svg">
<path d="M48.2568 10.2004C48.2568 11.0004 48.0568 11.7004 47.5568 12.2004C46.9568 12.8004 46.2568 13.1004 45.3568 13.1004C44.4568 13.1004 43.7568 12.8004 43.1568 12.2004C42.5568 11.6004 42.2568 10.9004 42.2568 10.0004C42.2568 9.10039 42.5568 8.40039 43.1568 7.80039C43.7568 7.20039 44.4568 6.90039 45.3568 6.90039C45.7568 6.90039 46.1568 7.00039 46.5568 7.20039C46.9568 7.40039 47.2568 7.60039 47.4568 7.90039L46.9568 8.40039C46.5568 7.90039 46.0568 7.70039 45.3568 7.70039C44.7568 7.70039 44.1568 7.90039 43.7568 8.40039C43.2568 8.80039 43.0568 9.40039 43.0568 10.1004C43.0568 10.8004 43.2568 11.4004 43.7568 11.8004C44.2568 12.2004 44.7568 12.5004 45.3568 12.5004C46.0568 12.5004 46.5568 12.3004 47.0568 11.8004C47.3568 11.5004 47.5568 11.1004 47.5568 10.6004H45.3568V9.80039H48.2568C48.2568 9.90039 48.2568 10.1004 48.2568 10.2004Z" fill="white" stroke="white" stroke-width="0.2" stroke-miterlimit="10"/>
<path d="M52.8569 7.7H50.1569V9.6H52.6569V10.3H50.1569V12.2H52.8569V13H49.3569V7H52.8569V7.7Z" fill="white" stroke="white" stroke-width="0.2" stroke-miterlimit="10"/>
<path d="M56.1567 13H55.3567V7.7H53.6567V7H57.8567V7.7H56.1567V13Z" fill="white" stroke="white" stroke-width="0.2" stroke-miterlimit="10"/>
<path d="M60.7568 13V7H61.5568V13H60.7568Z" fill="white" stroke="white" stroke-width="0.2" stroke-miterlimit="10"/>
<path d="M64.9565 13H64.1565V7.7H62.4565V7H66.5565V7.7H64.8565V13H64.9565Z" fill="white" stroke="white" stroke-width="0.2" stroke-miterlimit="10"/>
<path d="M74.4567 12.2004C73.8567 12.8004 73.1567 13.1004 72.2567 13.1004C71.3567 13.1004 70.6567 12.8004 70.0567 12.2004C69.4567 11.6004 69.1567 10.9004 69.1567 10.0004C69.1567 9.10039 69.4567 8.40039 70.0567 7.80039C70.6567 7.20039 71.3567 6.90039 72.2567 6.90039C73.1567 6.90039 73.8567 7.20039 74.4567 7.80039C75.0567 8.40039 75.3567 9.10039 75.3567 10.0004C75.3567 10.9004 75.0567 11.6004 74.4567 12.2004ZM70.6567 11.7004C71.0567 12.1004 71.6567 12.4004 72.2567 12.4004C72.8567 12.4004 73.4567 12.2004 73.8567 11.7004C74.2567 11.3004 74.5567 10.7004 74.5567 10.0004C74.5567 9.30039 74.3567 8.70039 73.8567 8.30039C73.4567 7.90039 72.8567 7.60039 72.2567 7.60039C71.6567 7.60039 71.0567 7.80039 70.6567 8.30039C70.2567 8.70039 69.9567 9.30039 69.9567 10.0004C69.9567 10.7004 70.1567 11.3004 70.6567 11.7004Z" fill="white" stroke="white" stroke-width="0.2" stroke-miterlimit="10"/>
<path d="M76.4565 13V7H77.3565L80.2565 11.7V10.5V7H81.0565V13H80.2565L77.1565 8.1V9.3V13H76.4565Z" fill="white" stroke="white" stroke-width="0.2" stroke-miterlimit="10"/>
<path d="M68.957 21.7996C66.557 21.7996 64.657 23.5996 64.657 26.0996C64.657 28.4996 66.557 30.3996 68.957 30.3996C71.357 30.3996 73.257 28.5996 73.257 26.0996C73.257 23.4996 71.357 21.7996 68.957 21.7996ZM68.957 28.5996C67.657 28.5996 66.557 27.4996 66.557 25.9996C66.557 24.4996 67.657 23.3996 68.957 23.3996C70.257 23.3996 71.357 24.3996 71.357 25.9996C71.357 27.4996 70.257 28.5996 68.957 28.5996ZM59.657 21.7996C57.257 21.7996 55.357 23.5996 55.357 26.0996C55.357 28.4996 57.257 30.3996 59.657 30.3996C62.057 30.3996 63.957 28.5996 63.957 26.0996C63.957 23.4996 62.057 21.7996 59.657 21.7996ZM59.657 28.5996C58.357 28.5996 57.257 27.4996 57.257 25.9996C57.257 24.4996 58.357 23.3996 59.657 23.3996C60.957 23.3996 62.057 24.3996 62.057 25.9996C62.057 27.4996 60.957 28.5996 59.657 28.5996ZM48.557 23.0996V24.8996H52.857C52.757 25.8996 52.357 26.6996 51.857 27.1996C51.257 27.7996 50.257 28.4996 48.557 28.4996C45.857 28.4996 43.857 26.3996 43.857 23.6996C43.857 20.9996 45.957 18.8996 48.557 18.8996C49.957 18.8996 51.057 19.4996 51.857 20.1996L53.157 18.8996C52.057 17.8996 50.657 17.0996 48.657 17.0996C45.057 17.0996 41.957 20.0996 41.957 23.6996C41.957 27.2996 45.057 30.2996 48.657 30.2996C50.657 30.2996 52.057 29.6996 53.257 28.3996C54.457 27.1996 54.857 25.4996 54.857 24.1996C54.857 23.7996 54.857 23.3996 54.757 23.0996H48.557ZM93.957 24.4996C93.557 23.4996 92.557 21.7996 90.357 21.7996C88.157 21.7996 86.357 23.4996 86.357 26.0996C86.357 28.4996 88.157 30.3996 90.557 30.3996C92.457 30.3996 93.657 29.1996 94.057 28.4996L92.657 27.4996C92.157 28.1996 91.557 28.6996 90.557 28.6996C89.557 28.6996 88.957 28.2996 88.457 27.3996L94.157 24.9996L93.957 24.4996ZM88.157 25.8996C88.157 24.2996 89.457 23.3996 90.357 23.3996C91.057 23.3996 91.757 23.7996 91.957 24.2996L88.157 25.8996ZM83.457 29.9996H85.357V17.4996H83.457V29.9996ZM80.457 22.6996C79.957 22.1996 79.157 21.6996 78.157 21.6996C76.057 21.6996 74.057 23.5996 74.057 25.9996C74.057 28.3996 75.957 30.1996 78.157 30.1996C79.157 30.1996 79.957 29.6996 80.357 29.1996H80.457V29.7996C80.457 31.3996 79.557 32.2996 78.157 32.2996C77.057 32.2996 76.257 31.4996 76.057 30.7996L74.457 31.4996C74.957 32.5996 76.157 33.9996 78.257 33.9996C80.457 33.9996 82.257 32.6996 82.257 29.5996V21.9996H80.457V22.6996ZM78.257 28.5996C76.957 28.5996 75.857 27.4996 75.857 25.9996C75.857 24.4996 76.957 23.3996 78.257 23.3996C79.557 23.3996 80.557 24.4996 80.557 25.9996C80.557 27.4996 79.557 28.5996 78.257 28.5996ZM102.657 17.4996H98.157V29.9996H100.057V25.2996H102.657C104.757 25.2996 106.757 23.7996 106.757 21.3996C106.757 18.9996 104.757 17.4996 102.657 17.4996ZM102.757 23.4996H100.057V19.1996H102.757C104.157 19.1996 104.957 20.3996 104.957 21.2996C104.857 22.3996 104.057 23.4996 102.757 23.4996ZM114.257 21.6996C112.857 21.6996 111.457 22.2996 110.957 23.5996L112.657 24.2996C113.057 23.5996 113.657 23.3996 114.357 23.3996C115.357 23.3996 116.257 23.9996 116.357 24.9996V25.0996C116.057 24.8996 115.257 24.5996 114.457 24.5996C112.657 24.5996 110.857 25.5996 110.857 27.3996C110.857 29.0996 112.357 30.1996 113.957 30.1996C115.257 30.1996 115.857 29.5996 116.357 28.9996H116.457V29.9996H118.257V25.1996C118.057 22.9996 116.357 21.6996 114.257 21.6996ZM114.057 28.5996C113.457 28.5996 112.557 28.2996 112.557 27.4996C112.557 26.4996 113.657 26.1996 114.557 26.1996C115.357 26.1996 115.757 26.3996 116.257 26.5996C116.057 27.7996 115.057 28.5996 114.057 28.5996ZM124.557 21.9996L122.457 27.3996H122.357L120.157 21.9996H118.157L121.457 29.5996L119.557 33.7996H121.457L126.557 21.9996H124.557ZM107.757 29.9996H109.657V17.4996H107.757V29.9996Z" fill="white"/>
<path d="M11.2569 7.50195C10.9569 7.80195 10.8569 8.30195 10.8569 8.90195V31.002C10.8569 31.602 11.0569 32.102 11.3569 32.402L11.4569 32.502L23.8569 20.102V20.002V19.902L11.2569 7.50195Z" fill="url(#paint0_linear_1210_6461)"/>
<path d="M27.8568 24.3008L23.7568 20.2008V20.0008V19.9008L27.8568 15.8008L27.9568 15.9008L32.8568 18.7008C34.2568 19.5008 34.2568 20.8008 32.8568 21.6008L27.8568 24.3008Z" fill="url(#paint1_linear_1210_6461)"/>
<path d="M27.9568 24.202L23.7568 20.002L11.2568 32.502C11.7568 33.002 12.4568 33.002 13.3568 32.602L27.9568 24.202Z" fill="url(#paint2_linear_1210_6461)"/>
<path d="M27.9568 15.8006L13.3568 7.5006C12.4568 7.0006 11.7568 7.1006 11.2568 7.6006L23.7568 20.0006L27.9568 15.8006Z" fill="url(#paint3_linear_1210_6461)"/>
<path opacity="0.2" d="M27.8568 24.1016L13.3568 32.3016C12.5568 32.8016 11.8568 32.7016 11.3568 32.3016L11.2568 32.4016L11.3568 32.5016C11.8568 32.9016 12.5568 33.0016 13.3568 32.5016L27.8568 24.1016Z" fill="black"/>
<path opacity="0.12" d="M11.2569 32.3004C10.9569 32.0004 10.8569 31.5004 10.8569 30.9004V31.0004C10.8569 31.6004 11.0569 32.1004 11.3569 32.4004V32.3004H11.2569Z" fill="black"/>
<path opacity="0.12" d="M32.8569 21.302L27.8569 24.102L27.9569 24.202L32.8569 21.402C33.5569 21.002 33.8569 20.502 33.8569 20.002C33.8569 20.502 33.4569 20.902 32.8569 21.302Z" fill="black"/>
<path opacity="0.25" d="M13.3569 7.60125L32.8569 18.7012C33.4569 19.1012 33.8569 19.5012 33.8569 20.0012C33.8569 19.5012 33.5569 19.0012 32.8569 18.6012L13.3569 7.50125C11.9569 6.70125 10.8569 7.30125 10.8569 8.90125V9.00125C10.8569 7.50125 11.9569 6.80125 13.3569 7.60125Z" fill="white"/>
<path d="M7.52616 0.603129C6.72714 0.605847 5.93648 0.763956 5.19933 1.06843C4.46219 1.3729 3.79299 1.81778 3.22994 2.37765C2.6669 2.93753 2.22104 3.60144 1.91781 4.33148C1.61459 5.06152 1.45994 5.84339 1.46271 6.63245V33.3676C1.45981 34.1566 1.61433 34.9385 1.91743 35.6686C2.22053 36.3987 2.66628 37.0627 3.22924 37.6226C3.79219 38.1826 4.46131 38.6276 5.19841 38.9322C5.93551 39.2368 6.72614 39.395 7.52516 39.3979H129.188C129.987 39.395 130.777 39.2368 131.514 38.9322C132.252 38.6276 132.921 38.1826 133.484 37.6226C134.047 37.0627 134.492 36.3987 134.795 35.6686C135.099 34.9385 135.253 34.1566 135.25 33.3676V6.63245C135.256 5.03904 134.62 3.50869 133.483 2.378C132.346 1.24731 130.801 0.608879 129.188 0.603129H7.52616ZM7.52616 0H129.188C130.962 0.00731694 132.662 0.709919 133.912 1.95349C135.162 3.19706 135.862 4.87992 135.857 6.63245V33.3676C135.862 35.1201 135.162 36.8029 133.912 38.0465C132.662 39.2901 130.962 39.9927 129.188 40H7.52616C5.75151 39.9927 4.05236 39.2901 2.8019 38.0465C1.55144 36.8029 0.851913 35.1201 0.856961 33.3676V6.63245C0.851913 4.87992 1.55144 3.19706 2.8019 1.95349C4.05236 0.709919 5.75151 0.00731694 7.52616 0Z" fill="white"/>
<defs>
<linearGradient id="paint0_linear_1210_6461" x1="22.6565" y1="8.71175" x2="5.87413" y2="25.4942" gradientUnits="userSpaceOnUse">
<stop stop-color="#00A0FF"/>
<stop offset="0.00657445" stop-color="#00A1FF"/>
<stop offset="0.2601" stop-color="#00BEFF"/>
<stop offset="0.5122" stop-color="#00D2FF"/>
<stop offset="0.7604" stop-color="#00DFFF"/>
<stop offset="1" stop-color="#00E3FF"/>
</linearGradient>
<linearGradient id="paint1_linear_1210_6461" x1="34.6911" y1="20.0023" x2="10.4942" y2="20.0023" gradientUnits="userSpaceOnUse">
<stop stop-color="#FFE000"/>
<stop offset="0.4087" stop-color="#FFBD00"/>
<stop offset="0.7754" stop-color="#FFA500"/>
<stop offset="1" stop-color="#FF9C00"/>
</linearGradient>
<linearGradient id="paint2_linear_1210_6461" x1="25.6837" y1="22.2982" x2="2.92544" y2="45.0565" gradientUnits="userSpaceOnUse">
<stop stop-color="#FF3A44"/>
<stop offset="1" stop-color="#C31162"/>
</linearGradient>
<linearGradient id="paint3_linear_1210_6461" x1="8.15404" y1="0.1769" x2="18.3166" y2="10.3394" gradientUnits="userSpaceOnUse">
<stop stop-color="#32A071"/>
<stop offset="0.0685" stop-color="#2DA771"/>
<stop offset="0.4762" stop-color="#15CF74"/>
<stop offset="0.8009" stop-color="#06E775"/>
<stop offset="1" stop-color="#00F076"/>
</linearGradient>
</defs>
</svg>
