<?xml version="1.0" standalone="no"?>
<!DOCTYPE svg PUBLIC "-//W3C//DTD SVG 20010904//EN"
 "http://www.w3.org/TR/2001/REC-SVG-20010904/DTD/svg10.dtd">
<svg version="1.0" xmlns="http://www.w3.org/2000/svg"
 width="700.000000pt" height="700.000000pt" viewBox="0 0 700.000000 700.000000"
 preserveAspectRatio="xMidYMid meet">
<metadata>
Created by potrace 1.14, written by Peter Selinger 2001-2017
</metadata>
<g transform="translate(0.000000,700.000000) scale(0.100000,-0.100000)"
fill="#000000" stroke="none">
<path d="M3423 6385 c-62 -19 -99 -42 -139 -89 -31 -35 -288 -461 -453 -750
-13 -22 -89 -151 -169 -286 -80 -135 -154 -261 -165 -280 -25 -46 -158 -271
-319 -543 -146 -247 -156 -267 -162 -334 -6 -80 14 -130 146 -353 69 -118 135
-231 146 -250 25 -45 96 -166 205 -352 102 -173 117 -212 113 -288 -10 -198
-227 -331 -407 -248 -64 29 -105 70 -157 158 -21 36 -75 126 -119 200 -44 74
-83 142 -86 150 -12 25 -455 774 -466 787 -6 7 -11 15 -11 18 0 3 -59 105
-131 228 -73 122 -139 236 -149 252 -9 17 -63 108 -119 204 -57 95 -111 188
-121 205 -206 358 -459 778 -483 800 -122 110 -321 56 -366 -99 -9 -30 -11
-457 -9 -1690 l3 -1650 29 -59 c54 -109 157 -187 273 -204 26 -4 1477 -7 3223
-6 l3175 1 55 21 c76 30 131 72 173 134 72 107 67 -22 65 1812 -3 1623 -3
1652 -23 1681 -85 129 -256 156 -354 56 -17 -17 -83 -120 -147 -228 -212 -360
-317 -537 -376 -638 -32 -55 -63 -107 -67 -115 -107 -177 -249 -421 -259 -444
-31 -72 -19 -194 26 -264 9 -13 23 -37 31 -52 9 -16 87 -149 174 -297 87 -147
162 -275 167 -283 5 -8 42 -71 82 -140 40 -69 78 -136 85 -150 61 -128 16
-284 -105 -361 -61 -39 -113 -52 -183 -46 -129 10 -193 70 -314 292 -6 11 -39
66 -73 123 -34 56 -71 119 -82 140 -11 20 -29 51 -39 67 -16 27 -259 440 -478
815 -47 80 -103 173 -124 208 -22 35 -39 65 -39 66 0 2 -41 73 -91 157 -51 85
-103 174 -117 199 -14 25 -51 88 -82 140 -31 52 -68 115 -82 140 -20 36 -107
184 -157 270 -5 8 -132 224 -283 480 -150 255 -278 474 -285 485 -7 11 -16 27
-20 35 -21 43 -80 114 -112 134 -76 48 -172 63 -248 41z"/>
<path d="M244 1306 c-103 -38 -166 -96 -213 -196 -22 -47 -26 -68 -26 -145 1
-80 4 -97 33 -157 50 -103 145 -176 255 -196 23 -5 1478 -8 3232 -8 l3190 1
65 31 c224 107 285 384 124 563 -51 57 -88 82 -159 106 -47 17 -242 18 -3245
20 l-3195 3 -61 -22z"/>
</g>
</svg>
