<svg width="121" height="32" viewBox="0 0 121 32" fill="none" xmlns="http://www.w3.org/2000/svg">
<path id="Union" fill-rule="evenodd" clip-rule="evenodd" d="M117.012 17.6205V9.85563L121 9.84993V5.22405H117.012V0L112.459 1.4584V5.22975H109.387V9.85563H112.459V17.6091C112.459 22.6452 114.609 24.622 121 23.8757V19.5119C118.386 19.6714 117.012 19.6315 117.012 17.6205ZM18.8762 5.49627V24.1479H14.328V21.966C13.6354 22.8621 12.7544 23.5749 11.7553 24.0477C10.7561 24.5204 9.66636 24.7401 8.57276 24.6891C6.23567 24.4831 4.05717 23.3561 2.46926 21.5316C0.881348 19.7071 0 17.3184 0 14.8392C0 12.3599 0.881348 9.9712 2.46926 8.14672C4.05717 6.32224 6.23567 5.19525 8.57276 4.98924C9.66725 4.93965 10.7576 5.16105 11.7568 5.63581C12.756 6.11057 13.6365 6.82555 14.328 7.72375V5.49627H18.8762ZM14.328 14.8221C14.3111 13.8052 14.0106 12.8162 13.4642 11.979C12.9179 11.1419 12.15 10.4938 11.2568 10.116C10.3636 9.73813 9.38474 9.64739 8.44294 9.8551C7.50115 10.0628 6.63829 10.5597 5.96247 11.2836C5.28665 12.0075 4.82794 12.9261 4.6438 13.9243C4.45966 14.9226 4.5583 15.9561 4.92734 16.8954C5.29639 17.8346 5.91944 18.6379 6.71841 19.2044C7.51738 19.771 8.45675 20.0757 9.41881 20.0803C10.6763 20.1265 11.8998 19.643 12.8203 18.7361C13.7408 17.8291 14.2831 16.573 14.328 15.2436C14.3334 15.1297 14.3334 14.9588 14.328 14.8221ZM32.9925 5.12049V10.4927C31.8558 10.2217 30.6639 10.4375 29.6773 11.093C28.6907 11.7485 27.9897 12.7902 27.7276 13.9906C27.6453 14.3889 27.6109 14.7966 27.6253 15.204V24.1367H23.0717V5.4851H27.6253V8.69245C28.0525 7.57723 28.8007 6.63228 29.7639 5.99126C30.7271 5.35025 31.8566 5.04563 32.9925 5.12049ZM52.9274 32.0001V5.8855H48.3792V8.06741C47.7011 7.16394 46.8281 6.44527 45.8334 5.97151C44.8387 5.49776 43.7511 5.28269 42.6617 5.3443C40.3196 5.54197 38.1339 6.66512 36.5401 8.49C34.9462 10.3149 34.0611 12.7076 34.0611 15.1914C34.0611 17.6752 34.9462 20.0679 36.5401 21.8928C38.1339 23.7176 40.3196 24.8408 42.6617 25.0385C43.7508 25.0972 44.8375 24.8809 45.8317 24.4074C46.826 23.9338 47.6993 23.2167 48.3792 22.3153V32.0001H52.9274ZM47.5112 12.3618C48.0602 13.2003 48.3622 14.1918 48.3792 15.2113C48.3846 15.348 48.3846 15.4791 48.3792 15.6158C48.3426 16.9385 47.8116 18.192 46.9026 19.1017C45.9936 20.0114 44.7806 20.5033 43.5293 20.4696C42.5647 20.4773 41.6196 20.1831 40.8128 19.6241C40.0061 19.065 39.3739 18.2662 38.9958 17.328C38.6177 16.3899 38.5106 15.3545 38.688 14.3522C38.8655 13.3498 39.3195 12.4254 39.9929 11.6953C40.6663 10.9652 41.529 10.4621 42.4723 10.2493C43.4157 10.0365 44.3975 10.1235 45.2942 10.4995C46.1908 10.8754 46.9622 11.5234 47.5112 12.3618ZM73.7797 5.49593L67.0706 24.1476H61.8865L55.1828 5.49593H60.1944L64.4731 18.5475L68.7842 5.49023L73.7797 5.49593ZM86.3171 19.8571C85.6332 20.1801 84.8883 20.3327 84.1398 20.3033C83.0525 20.439 81.9549 20.1633 81.0415 19.5251C80.1281 18.8869 79.4579 17.9275 79.1497 16.8168H92.4656C92.5784 16.1645 92.6379 15.5031 92.6434 14.84V14.3957C92.6413 13.157 92.4083 11.931 91.9578 10.7876C91.5073 9.64416 90.8481 8.60579 90.0179 7.7318C89.1876 6.85781 88.2027 6.16532 87.1192 5.69391C86.0357 5.2225 84.875 4.98141 83.7033 4.9844H83.0674C81.8403 5.04683 80.637 5.36504 79.5266 5.92074C78.4162 6.47644 77.4207 7.25866 76.5972 8.22245C75.7738 9.18624 75.1386 10.3126 74.7283 11.5367C74.3179 12.7609 74.1405 14.0587 74.2062 15.3556C74.2719 16.6525 74.5794 17.9229 75.111 19.0937C75.6427 20.2645 76.388 21.3127 77.3041 22.178C78.2202 23.0434 79.2891 23.7087 80.4492 24.1359C81.6094 24.5631 82.838 24.7436 84.0643 24.6672C85.5596 24.7376 87.0476 24.4092 88.3914 23.7123C89.7352 23.0155 90.8916 21.9725 91.7542 20.6793L88.0844 18.4405C87.6057 19.0494 87.001 19.5341 86.3171 19.8571ZM86.5684 10.3114C87.3736 11.0054 87.9124 11.9853 88.0844 13.0683H79.0905C79.2909 11.9514 79.8715 10.951 80.7225 10.256C81.5735 9.56111 82.6359 9.2199 83.7087 9.29695C84.7468 9.25689 85.7633 9.61747 86.5684 10.3114ZM108.505 18.7035C108.505 22.7312 105.191 24.6681 101.413 24.6681C99.9026 24.8003 98.3894 24.4508 97.0686 23.6648C95.7478 22.8788 94.6802 21.6924 94.0035 20.2587L97.9481 17.9116C98.1855 18.6661 98.6554 19.3146 99.2826 19.7535C99.9097 20.1924 100.658 20.3964 101.408 20.3328C102.852 20.3328 103.843 19.8144 103.843 18.732C103.843 17.6622 102.444 17.2412 100.742 16.7293C98.1026 15.9354 94.7363 14.9229 94.7363 10.9329C94.7363 7.12739 97.808 5.00244 101.445 5.00244C102.797 4.95463 104.136 5.29751 105.317 5.99417C106.498 6.69083 107.478 7.71488 108.149 8.95609L104.264 11.1437C104.027 10.5664 103.631 10.0774 103.129 9.73932C102.627 9.40128 102.041 9.2297 101.445 9.24663C100.314 9.24663 99.3977 9.77075 99.3977 10.7791C99.3998 11.8572 100.775 12.2574 102.457 12.7466C105.102 13.5163 108.505 14.5063 108.505 18.7035Z" fill="white"/>
</svg>
