<svg width="98" height="40" viewBox="0 0 98 40" fill="none" xmlns="http://www.w3.org/2000/svg">
<g clip-path="url(#clip0_1207_5806)">
<path d="M17.8875 5.15699C16.7409 6.50809 14.9063 7.57374 13.0717 7.4215C12.8423 5.59467 13.7405 3.65366 14.7916 2.4548C15.9382 1.06565 17.9449 0.076118 19.5693 0C19.7604 1.90295 19.015 3.76784 17.8875 5.15699ZM19.5501 7.78306C16.8938 7.63083 14.6196 9.28639 13.3583 9.28639C12.0779 9.28639 10.1477 7.85918 8.04557 7.89724C5.31276 7.9353 2.77105 9.47669 1.37598 11.9315C-1.4906 16.8411 0.63067 24.1104 3.4017 28.1066C4.75855 30.0856 6.38295 32.255 8.52334 32.1789C10.5491 32.1028 11.3517 30.8658 13.7979 30.8658C16.2631 30.8658 16.9702 32.1789 19.1106 32.1408C21.3274 32.1028 22.7225 30.1618 24.0793 28.1827C25.6273 25.9372 26.258 23.7488 26.2962 23.6346C26.258 23.5966 22.0154 21.9791 21.9772 17.1075C21.939 13.0352 25.3215 11.0942 25.4744 10.98C23.5634 8.16365 20.5821 7.85918 19.5501 7.78306ZM34.8959 2.26451V31.9315H39.5207V21.7888H45.9227C51.7706 21.7888 55.8793 17.7926 55.8793 12.0076C55.8793 6.22265 51.847 2.26451 46.0756 2.26451H34.8959ZM39.5207 6.14653H44.8525C48.8658 6.14653 51.159 8.27783 51.159 12.0266C51.159 15.7755 48.8658 17.9258 44.8334 17.9258H39.5207V6.14653ZM64.3262 32.1599C67.231 32.1599 69.9256 30.6946 71.1487 28.373H71.2442V31.9315H75.525V17.1646C75.525 12.883 72.0851 10.1237 66.7915 10.1237C61.8801 10.1237 58.2491 12.921 58.1153 16.765H62.2814C62.6254 14.9382 64.3262 13.7393 66.6577 13.7393C69.4861 13.7393 71.0723 15.0523 71.0723 17.4691V19.1056L65.3009 19.4481C59.9308 19.7716 57.026 21.96 57.026 25.7659C57.026 29.6099 60.0263 32.1599 64.3262 32.1599ZM65.5684 28.6394C63.1031 28.6394 61.5361 27.4596 61.5361 25.6518C61.5361 23.7869 63.0458 22.7022 65.9315 22.5309L71.0723 22.2074V23.882C71.0723 26.6603 68.7025 28.6394 65.5684 28.6394ZM81.2391 40C85.7492 40 87.8704 38.2873 89.7242 33.0923L97.8462 10.4091H93.145L87.6984 27.9353H87.6029L82.1564 10.4091H77.3214L85.1567 32.0076L84.7363 33.3206C84.0292 35.5471 82.8826 36.4034 80.8378 36.4034C80.4747 36.4034 79.7676 36.3654 79.4809 36.3273V39.8858C79.7485 39.9619 80.8951 40 81.2391 40Z" fill="#B8B8B8"/>
</g>
<defs>
<clipPath id="clip0_1207_5806">
<rect width="97.8462" height="40" fill="white"/>
</clipPath>
</defs>
</svg>
