<svg width="153" height="40" viewBox="0 0 153 40" fill="none" xmlns="http://www.w3.org/2000/svg">
<g clip-path="url(#clip0_1207_5816)">
<path d="M57.0979 8.17969H48.6807C48.1047 8.17969 47.6148 8.59181 47.525 9.15181L44.1207 30.4088C44.053 30.8282 44.3828 31.2064 44.8148 31.2064H48.8333C49.4093 31.2064 49.8991 30.7942 49.989 30.233L50.9071 24.4997C50.9957 23.9385 51.4868 23.5264 52.0616 23.5264H54.7262C60.2708 23.5264 63.4708 20.8839 64.3065 15.6476C64.6831 13.3567 64.3225 11.5567 63.2333 10.2961C62.037 8.91181 59.9151 8.17969 57.0979 8.17969ZM58.069 15.9433C57.6087 18.9179 55.301 18.9179 53.0696 18.9179H51.7994L52.6905 13.3627C52.7434 13.027 53.0388 12.7797 53.3834 12.7797H53.9656C55.4856 12.7797 56.9194 12.7797 57.6603 13.633C58.1022 14.1421 58.2376 14.8985 58.069 15.9433Z" fill="#B8B8B8"/>
<path d="M82.2584 15.8479H78.2277C77.8843 15.8479 77.5877 16.0952 77.5347 16.431L77.3563 17.5413L77.0744 17.1389C76.2018 15.8916 74.256 15.4746 72.3138 15.4746C67.8597 15.4746 64.0554 18.797 63.3144 23.4576C62.9292 25.7825 63.4769 28.0055 64.816 29.5558C66.0443 30.9813 67.8018 31.5752 69.8929 31.5752C73.4818 31.5752 75.472 29.3025 75.472 29.3025L75.2923 30.4055C75.2246 30.8273 75.5544 31.2055 75.984 31.2055H79.6147C80.192 31.2055 80.6793 30.7934 80.7704 30.2322L82.9489 16.6455C83.0178 16.2273 82.6892 15.8479 82.2584 15.8479ZM76.64 23.574C76.251 25.8419 74.4234 27.3643 72.0923 27.3643C70.9218 27.3643 69.9864 26.9946 69.3858 26.294C68.7901 25.5982 68.5637 24.6079 68.7532 23.5049C69.1163 21.2564 70.9747 19.6843 73.2701 19.6843C74.4147 19.6843 75.3452 20.0589 75.9581 20.7655C76.5723 21.4795 76.816 22.4758 76.64 23.574Z" fill="#B8B8B8"/>
<path d="M103.726 15.8477H99.6752C99.2887 15.8477 98.9256 16.0367 98.7066 16.3531L93.1201 24.4574L90.7521 16.6695C90.6032 16.1822 90.1466 15.8477 89.6296 15.8477H85.6493C85.1656 15.8477 84.8296 16.3131 84.9835 16.7616L89.445 29.6561L85.2506 35.4877C84.9207 35.947 85.253 36.5786 85.8229 36.5786H89.8684C90.2524 36.5786 90.6118 36.3943 90.8296 36.084L104.302 16.9325C104.624 16.4743 104.293 15.8477 103.726 15.8477Z" fill="#B8B8B8"/>
<path opacity="0.6" d="M117.136 8.17969H108.718C108.143 8.17969 107.653 8.59181 107.563 9.15181L104.159 30.4088C104.091 30.8282 104.421 31.2064 104.85 31.2064H109.17C109.572 31.2064 109.915 30.9179 109.978 30.5251L110.944 24.4997C111.033 23.9385 111.524 23.5264 112.098 23.5264H114.762C120.308 23.5264 123.506 20.8839 124.343 15.6476C124.721 13.3567 124.358 11.5567 123.269 10.2961C122.074 8.91181 119.953 8.17969 117.136 8.17969ZM118.107 15.9433C117.648 18.9179 115.34 18.9179 113.108 18.9179H111.839L112.731 13.3627C112.784 13.027 113.077 12.7797 113.423 12.7797H114.005C115.524 12.7797 116.959 12.7797 117.7 13.633C118.142 14.1421 118.276 14.8985 118.107 15.9433Z" fill="#B8B8B8"/>
<path opacity="0.6" d="M142.295 15.8479H138.267C137.921 15.8479 137.627 16.0952 137.575 16.431L137.397 17.5413L137.114 17.1389C136.241 15.8916 134.296 15.4746 132.354 15.4746C127.9 15.4746 124.097 18.797 123.356 23.4576C122.972 25.7825 123.517 28.0055 124.856 29.5558C126.087 30.9813 127.842 31.5752 129.933 31.5752C133.522 31.5752 135.512 29.3025 135.512 29.3025L135.333 30.4055C135.265 30.8273 135.595 31.2055 136.027 31.2055H139.656C140.231 31.2055 140.721 30.7934 140.811 30.2322L142.991 16.6455C143.057 16.2273 142.727 15.8479 142.295 15.8479ZM136.677 23.574C136.29 25.8419 134.46 27.3643 132.129 27.3643C130.961 27.3643 130.023 26.9946 129.423 26.294C128.827 25.5982 128.603 24.6079 128.79 23.5049C129.155 21.2564 131.011 19.6843 133.307 19.6843C134.451 19.6843 135.382 20.0589 135.995 20.7655C136.611 21.4795 136.855 22.4758 136.677 23.574Z" fill="#B8B8B8"/>
<path opacity="0.6" d="M147.047 8.76393L143.592 30.41C143.525 30.8294 143.854 31.2076 144.284 31.2076H147.757C148.334 31.2076 148.824 30.7954 148.913 30.2342L152.32 8.97848C152.387 8.55908 152.058 8.17969 151.628 8.17969H147.739C147.395 8.1809 147.1 8.42817 147.047 8.76393Z" fill="#B8B8B8"/>
<path opacity="0.9" d="M26.997 8.66709C26.7644 8.60042 26.5244 8.53982 26.2783 8.48527C26.0309 8.43194 25.7774 8.38466 25.5164 8.34345C24.6032 8.198 23.6026 8.12891 22.5306 8.12891H13.482C13.2592 8.12891 13.0475 8.1786 12.858 8.2683C12.4407 8.46588 12.1306 8.85497 12.0555 9.33133L10.1306 21.3386L10.0752 21.6889C10.202 20.8986 10.8875 20.3168 11.701 20.3168H15.0881C21.7404 20.3168 26.949 17.6562 28.4715 9.95921C28.517 9.73133 28.5552 9.50951 28.5897 9.29254C28.2044 9.09133 27.7872 8.91921 27.338 8.77254C27.2272 8.73618 27.1127 8.70103 26.997 8.66709Z" fill="#989898"/>
<path opacity="0.6" d="M28.5892 9.29297C28.5548 9.50994 28.5154 9.73176 28.4711 9.95964C26.9486 17.6578 21.74 20.3172 15.0877 20.3172H11.7006C10.8871 20.3172 10.2015 20.899 10.0748 21.6893L8.34061 32.5208L7.84953 35.5912C7.76707 36.1099 8.17323 36.5778 8.70492 36.5778H14.7123C15.4237 36.5778 16.028 36.0687 16.14 35.3778L16.1991 35.0772L17.3301 28.0081L17.4028 27.6202C17.5135 26.9269 18.1191 26.4178 18.8305 26.4178H19.7289C25.5492 26.4178 30.1055 24.0905 31.4372 17.356C31.9935 14.5427 31.7055 12.1936 30.2335 10.5415C29.788 10.0433 29.2354 9.62994 28.5892 9.29297Z" fill="#B8B8B8"/>
<path d="M12.0553 9.33212C12.1303 8.85576 12.4405 8.46667 12.8577 8.2703C13.0485 8.18061 13.259 8.13091 13.4817 8.13091H22.5303C23.6023 8.13091 24.603 8.2 25.5162 8.34546C25.7771 8.38667 26.0306 8.43394 26.278 8.48727C26.5242 8.54182 26.7642 8.60242 26.9968 8.66909C27.1125 8.70303 27.2269 8.73818 27.339 8.77333C27.7882 8.92 28.2054 9.09333 28.5906 9.29333C29.0436 6.44848 28.587 4.51152 27.0251 2.75758C25.3033 0.826667 22.1956 0 18.219 0H6.67434C5.86203 0 5.1691 0.581818 5.04357 1.37333L0.23495 31.3915C0.140181 31.9855 0.605412 32.5212 1.21341 32.5212H8.3408L10.1303 21.3394L12.0553 9.33212Z" fill="#B8B8B8"/>
</g>
<defs>
<clipPath id="clip0_1207_5816">
<rect width="152.615" height="40" fill="white" transform="translate(0.222656)"/>
</clipPath>
</defs>
</svg>
