<svg width="158" height="40" viewBox="0 0 158 40" fill="none" xmlns="http://www.w3.org/2000/svg">
<g clip-path="url(#clip0_1207_5826)">
<path fill-rule="evenodd" clip-rule="evenodd" d="M7.04242 2.81544e-07H33.2651C35.0107 -0.000513962 36.6852 0.703444 37.9198 1.95696C39.1543 3.21047 39.848 4.91082 39.848 6.68382V33.3142C39.848 37.0067 36.9006 40 33.2651 40H7.04242C3.40752 39.9989 0.461426 37.006 0.461426 33.3142V6.68382C0.461426 2.99244 3.40782 2.81544e-07 7.04242 2.81544e-07ZM30.6146 32.7282C31.7618 32.7282 32.6918 31.7836 32.6918 30.6185L32.6861 9.38333C32.6861 8.21826 31.7561 7.27378 30.6089 7.27378H9.70231C9.1511 7.27378 8.62249 7.49631 8.23291 7.89235C7.84332 8.28838 7.62472 8.82545 7.62522 9.38527V30.6185C7.62522 31.7836 8.55516 32.7282 9.70231 32.7282H30.6146Z" fill="#B8B8B8"/>
<path d="M15.9758 25.4224C15.321 25.4171 14.793 24.8765 14.793 24.2115V15.7344C14.7915 15.4122 14.9164 15.1027 15.1402 14.8743C15.364 14.646 15.6681 14.5176 15.9854 14.5176H24.3435C24.6605 14.5181 24.9643 14.6466 25.1881 14.8749C25.4117 15.1032 25.5369 15.4124 25.5358 15.7344V24.2094C25.5369 24.5315 25.4117 24.8407 25.1881 25.0689C24.9643 25.2973 24.6605 25.4258 24.3435 25.4264L15.9758 25.4224Z" fill="#B8B8B8"/>
<path d="M59.889 18.2182C58.6699 17.8805 57.5157 17.5623 56.6196 17.1567C54.9609 16.4037 54.189 15.3595 54.189 13.873C54.189 11.0628 56.8641 9.79747 59.5279 9.79747C62.0597 9.79747 64.2706 10.861 65.7554 12.7901L65.8565 12.922L67.9967 11.222L67.8936 11.09C65.9197 8.53989 62.9961 7.14258 59.6577 7.14258C57.4355 7.14258 55.3985 7.75196 53.9253 8.86011C52.2667 10.0925 51.3914 11.8799 51.3914 14.0127C51.3914 18.9713 55.9889 20.1802 59.6846 21.1526C63.4242 22.154 65.7153 22.9147 65.7153 25.8102C65.7153 28.6611 63.4451 30.5029 59.9329 30.5029C58.196 30.5029 54.9801 30.0353 52.9584 26.8991L52.8648 26.7515L50.6138 28.4069L50.7017 28.5409C52.6125 31.4791 55.9106 33.1656 59.761 33.1656C64.9909 33.1656 68.5069 30.1671 68.5069 25.7075C68.5069 20.6033 63.726 19.2817 59.889 18.2182Z" fill="#B8B8B8"/>
<path fill-rule="evenodd" clip-rule="evenodd" d="M85.5671 17.1872V14.5032H88.0836V39.9964H85.5671V30.0366C84.1301 32.0375 81.9747 33.132 79.4408 33.132C74.6561 33.132 71.312 29.2409 71.312 23.6226C71.312 18.0042 74.6636 14.082 79.4408 14.082C81.9575 14.082 84.1129 15.1824 85.5671 17.1872ZM73.9644 23.5915C73.9644 28.7926 76.8975 30.646 79.6433 30.646L79.649 30.6479C83.2434 30.6479 85.5671 27.8533 85.5671 23.5915C85.5671 19.3297 83.2396 16.5739 79.6433 16.5739C75.4567 16.5739 73.9644 20.1991 73.9644 23.5915Z" fill="#B8B8B8"/>
<path d="M104.721 14.5039V24.5664C104.721 28.089 102.346 30.6468 99.0747 30.6468C96.3575 30.6468 95.0352 29.0088 95.0352 25.6417V14.5039H92.5186V26.1637C92.5186 30.5302 94.8555 33.1366 98.7689 33.1366C101.207 33.1366 103.302 32.0868 104.723 30.1673V32.7213H107.24V14.5039H104.721Z" fill="#B8B8B8"/>
<path fill-rule="evenodd" clip-rule="evenodd" d="M111.979 16.4167C113.834 14.936 116.353 14.0879 118.885 14.0879C122.884 14.0879 125.271 16.1082 125.263 19.4966V32.7246H122.745V30.7043C121.474 32.3208 119.636 33.1399 117.27 33.1399C113.416 33.1399 111.02 30.9992 111.02 27.5564C111.02 23.0792 115.174 22.3766 116.943 22.0777C117.232 22.0293 117.53 21.9828 117.828 21.9361H117.828L117.839 21.9344C120.256 21.5564 122.752 21.1664 122.752 19.0833C122.752 16.7253 119.739 16.5429 118.816 16.5429C117.186 16.5429 114.883 17.0339 113.318 18.4117L113.175 18.5379L111.86 16.5118L111.979 16.4167ZM113.647 27.4128C113.647 30.3317 116.353 30.6479 117.517 30.6479H117.518C120.048 30.6479 122.756 29.2779 122.75 25.4275V22.7919C121.523 23.5793 119.776 23.887 118.217 24.1613L118.191 24.1661L117.41 24.3077C114.914 24.7773 113.647 25.3828 113.647 27.4128Z" fill="#B8B8B8"/>
<path d="M139.843 14.8471C139.245 14.4144 138.303 14.1562 137.321 14.1562C135.302 14.1832 133.414 15.1714 132.221 16.8247V14.4959H129.704V32.7114H132.221V22.9691C132.221 18.6491 134.611 16.7141 136.979 16.7141C137.672 16.7047 138.358 16.8526 138.987 17.1469L139.157 17.2381L139.954 14.9209L139.843 14.8471Z" fill="#B8B8B8"/>
<path fill-rule="evenodd" clip-rule="evenodd" d="M140.581 23.6613C140.581 18.0256 144.041 14.0879 148.988 14.0879C153.754 14.0879 157.085 17.5831 157.075 22.5959C157.074 23.0317 157.05 23.467 157.004 23.9001L156.989 24.0495H143.231C143.294 28.061 145.671 30.6479 149.319 30.6479C151.409 30.6479 153.221 29.7844 154.419 28.2143L154.528 28.0708L156.351 29.7203L156.25 29.8444C155.038 31.3446 152.829 33.1341 149.179 33.1341C144.039 33.1341 140.581 29.3283 140.581 23.6613ZM148.919 16.5409C145.845 16.5409 143.665 18.5961 143.324 21.7964H154.415C154.197 19.223 152.649 16.5409 148.919 16.5409Z" fill="#B8B8B8"/>
</g>
<defs>
<clipPath id="clip0_1207_5826">
<rect width="157.538" height="40" fill="white" transform="translate(0.461426)"/>
</clipPath>
</defs>
</svg>
