<svg width="97" height="40" viewBox="0 0 97 40" fill="none" xmlns="http://www.w3.org/2000/svg">
<path fill-rule="evenodd" clip-rule="evenodd" d="M52.513 5.42062L45.8106 6.86256V1.41523L52.513 0V5.42062ZM66.4518 8.43759C63.835 8.43759 62.1527 9.6659 61.2181 10.5204L60.871 8.86483H54.9964V40L61.6721 38.5848L61.6988 31.0279C62.6601 31.7222 64.0753 32.7102 66.4251 32.7102C71.2049 32.7102 75.5574 28.865 75.5574 20.4003C75.5307 12.6566 71.1248 8.43759 66.4518 8.43759ZM64.8497 26.8356C63.2742 26.8356 62.3396 26.2749 61.6988 25.5806L61.6721 15.674C62.3663 14.8996 63.3276 14.3656 64.8497 14.3656C67.2796 14.3656 68.9619 17.0892 68.9619 20.5872C68.9619 24.1654 67.3063 26.8356 64.8497 26.8356ZM96.599 20.6674C96.599 13.8315 93.2879 8.43759 86.9594 8.43759C80.6041 8.43759 76.759 13.8315 76.759 20.6139C76.759 28.6514 81.2984 32.7102 87.8138 32.7102C90.9914 32.7102 93.3947 31.9892 95.2104 30.9745V25.634C93.3947 26.5419 91.3119 27.1027 88.6683 27.1027C86.0782 27.1027 83.7817 26.1948 83.488 23.0439H96.5456C96.5456 22.8967 96.5552 22.5624 96.5662 22.1772L96.5662 22.1762L96.5663 22.175C96.5813 21.6521 96.599 21.036 96.599 20.6674ZM83.4079 18.1306C83.4079 15.1132 85.2504 13.8582 86.9326 13.8582C88.5615 13.8582 90.2972 15.1132 90.2972 18.1306H83.4079ZM52.513 8.89192H45.8106V32.2566H52.513V8.89192ZM38.2006 8.89149L38.6278 10.8675C40.2032 7.9836 43.3274 8.57106 44.1819 8.89149V15.0331C43.3541 14.7393 40.6839 14.3655 39.1084 16.4216V32.2562H32.4328V8.89149H38.2006ZM25.2765 3.09739L18.761 4.48592L18.7343 25.8747C18.7343 29.8266 21.6983 32.7372 25.6503 32.7372C27.8399 32.7372 29.4421 32.3367 30.3232 31.856V26.4354C29.4688 26.7826 25.2498 28.0109 25.2498 24.0589V14.5795H30.3232V8.89184H25.2498L25.2765 3.09739ZM9.49519 14.232C8.07995 14.232 7.22547 14.6326 7.22547 15.674C7.22547 16.811 8.69605 17.3112 10.5205 17.9317C13.4947 18.9433 17.4093 20.2748 17.4258 25.2068C17.4258 29.9865 13.6074 32.7369 8.05325 32.7369C5.75683 32.7369 3.24679 32.283 0.763454 31.2149V24.8597C3.00647 26.088 5.83694 26.9959 8.05325 26.9959C9.54859 26.9959 10.6167 26.5953 10.6167 25.367C10.6167 24.1075 9.02256 23.5318 7.09801 22.8368C4.16704 21.7784 0.469727 20.4431 0.469727 15.9944C0.469727 11.2681 4.07457 8.43759 9.49519 8.43759C11.7115 8.43759 13.9011 8.78472 16.1174 9.6659V15.941C14.088 14.8462 11.5246 14.232 9.49519 14.232Z" fill="#B8B8B8"/>
</svg>
