<svg width="1366" height="826" viewBox="0 0 1366 826" fill="none" xmlns="http://www.w3.org/2000/svg">
<path d="M1295.25 826H70.7455C31.4425 826 0 796.558 0 759.756V174.196C0 131.669 59.3913 116.949 82.0997 153.75L407.005 674.703C422.726 700.055 457.662 709.052 484.738 693.513C511.813 678.792 521.421 646.079 504.826 620.727L400.891 453.073C390.411 436.717 390.411 416.271 400.891 399.097L633.216 26.9881C655.925 -8.99604 710.949 -8.99604 733.657 26.9881L1136.3 673.885C1152.02 699.238 1186.95 708.234 1214.03 692.695C1241.1 677.974 1250.71 645.261 1234.12 619.909L1130.18 453.073C1119.7 436.717 1119.7 416.271 1130.18 399.097L1283.9 153.75C1306.61 116.949 1366 132.487 1366 174.196V758.939C1366 796.558 1334.56 826 1295.25 826Z" fill="url(#paint0_linear_1294_1427)"/>
<defs>
<linearGradient id="paint0_linear_1294_1427" x1="856.596" y1="113.667" x2="40.873" y2="767.648" gradientUnits="userSpaceOnUse">
<stop stop-opacity="0.11"/>
<stop offset="1" stop-opacity="0"/>
</linearGradient>
</defs>
</svg>
