<svg width="1056" height="480" viewBox="0 0 1056 480" fill="none" xmlns="http://www.w3.org/2000/svg">
<path d="M248.083 479.3C244.03 477.78 242.897 476.292 243.859 473.756C244.305 472.581 245.162 471.619 245.763 471.619C246.364 471.619 248.996 473.004 251.61 474.697C254.225 476.39 257.423 478.16 258.716 478.631L261.067 479.486L258.174 479.549C256.584 479.583 254.25 479.762 252.988 479.945C251.726 480.128 249.519 479.838 248.083 479.3ZM238.884 471.5C238.121 471.072 236.849 470.928 236.057 471.18C235.059 471.497 234.289 471.025 233.551 469.644C232.965 468.547 231.915 467.453 231.217 467.212C229.616 466.661 226.261 461.215 224.393 456.137C223.45 453.572 222.181 451.799 220.675 450.941C218.003 449.419 217.811 448.728 219.88 448.07C222.246 447.318 222.686 443.139 220.695 440.337C219.744 439 219.244 437.429 219.53 436.682C219.868 435.799 218.935 434.251 216.676 431.945C213.825 429.035 213.298 427.977 213.17 424.911C213.088 422.926 212.605 420.801 212.098 420.189C211.459 419.418 211.329 416.65 211.674 411.178C212.048 405.248 211.83 401.588 210.8 396.486C209.27 388.91 208.489 374.795 208.886 361.917C208.971 359.169 208.616 355.397 208.096 353.534C206.832 348.998 201.013 343.272 193.823 339.486C188.679 336.779 187.956 336.085 185.946 331.927C184.728 329.408 182.401 325.644 180.774 323.563C179.148 321.481 177.38 318.423 176.845 316.769C175.147 311.516 172.154 306.239 170.115 304.9C169.029 304.187 167.791 302.335 167.363 300.782C166.671 298.271 166.853 297.57 169.02 294.415C171.369 290.995 171.397 290.855 169.809 290.439C165.908 289.417 167.549 284.194 174.551 275.342C179.206 269.459 180.569 264.977 179.28 259.799C178.789 257.826 178.349 255.762 178.302 255.212C178.256 254.663 177.906 254.213 177.525 254.213C177.144 254.213 177.217 253.492 177.688 252.611C178.413 251.253 178.23 250.866 176.487 250.07C173.946 248.911 170.11 250.057 170.096 251.98C170.078 254.286 169.065 254.456 165.727 252.713C163.939 251.78 162.082 251.016 161.6 251.016C161.119 251.016 159.245 249.739 157.436 248.178C155.627 246.617 153.699 244.985 153.15 244.55C152.602 244.115 152.153 242.93 152.153 241.916C152.153 240.903 151.448 239.435 150.587 238.654C149.726 237.873 148.61 235.986 148.107 234.46C147.447 232.455 146.952 231.928 146.322 232.559C145.007 233.875 143.061 233.625 138.337 231.533C135.868 230.439 133.295 228.57 132.267 227.124C131.286 225.744 129.412 224.06 128.102 223.382C125.941 222.262 125.401 222.271 122.252 223.475L118.783 224.802L108.14 219.636C101.593 216.458 96.5119 213.426 94.9382 211.759C92.4981 209.174 92.4191 208.894 93.231 205.689C93.9748 202.754 93.8485 201.846 92.2308 198.498C91.2124 196.39 88.9874 193.153 87.2862 191.305C85.5851 189.456 84.3865 187.63 84.6226 187.247C84.8588 186.864 83.6605 184.284 81.9597 181.514C80.0276 178.367 78.6641 174.995 78.3253 172.528C77.8911 169.366 77.3851 168.398 75.7834 167.667C74.0855 166.892 73.6108 166.991 72.6386 168.321C71.2694 170.195 71.6586 172.173 74.6861 178.727C75.9164 181.39 77.1878 185.338 77.5115 187.5C77.8351 189.662 78.7912 192.789 79.636 194.447C81.637 198.377 80.345 198.307 77.1894 194.316C75.3283 191.962 74.8257 190.671 75.1955 189.195C75.5904 187.619 75.2016 186.86 73.2672 185.427C70.3335 183.254 69.7126 181.852 70.7903 179.835C71.4187 178.659 71.1305 177.369 69.5346 174.214C67.9138 171.01 67.5749 169.458 67.9761 167.079C68.6321 163.19 66.8902 159.67 63.6428 158.322C61.768 157.544 61.1216 156.674 60.7396 154.413C60.4693 152.813 59.9517 150.338 59.5893 148.913C59.2123 147.43 59.2397 146.13 59.6534 145.874C60.051 145.628 59.7909 144.531 59.0752 143.437C58.0212 141.826 57.949 141.063 58.6953 139.423C59.2019 138.309 59.3932 137.035 59.1202 136.593C58.8473 136.15 59.5275 134.829 60.6317 133.655C61.7359 132.482 63.206 130.142 63.8986 128.456C64.5912 126.769 66.7254 123.643 68.6414 121.508C70.5574 119.373 72.9863 115.634 74.0391 113.198C75.5004 109.817 76.357 108.767 77.6599 108.756C78.5985 108.749 79.3166 109.192 79.2557 109.742C79.0017 112.032 80.8092 111.326 82.8394 108.343C84.0362 106.584 84.6818 105.026 84.2743 104.879C83.8668 104.733 83.5333 104.071 83.5333 103.409C83.5333 102.747 81.8815 100.598 79.8626 98.632C76.5141 95.3719 76.2991 94.9397 77.4125 93.7072C78.3146 92.7087 78.4207 91.976 77.8191 90.8991C76.7619 89.0067 78.4301 84.7687 80.239 84.7517C80.9861 84.7445 81.1994 84.4899 80.7407 84.1523C79.7115 83.3948 79.2453 81.6748 79.3899 79.1689C79.6208 75.1667 78.7465 73.4926 75.7761 72.2493C74.1739 71.5787 71.7291 70.1637 70.3433 69.1048C68.9575 68.046 67.1992 67.1796 66.436 67.1796C65.6729 67.1796 62.2039 66.4521 58.7272 65.5629C53.1377 64.1332 52.1526 64.0768 50.2163 65.075C46.2037 67.1438 41.9525 67.987 40.2194 67.0578C38.9194 66.3609 37.5007 66.7913 32.5537 69.3834C29.2149 71.1329 25.2265 72.8358 23.6906 73.1676C22.1546 73.4994 19.2151 74.6203 17.1584 75.6584C11.3245 78.6031 2.96745 81.5715 0.655831 81.5201C-0.836043 81.4868 0.17259 80.8314 4.14193 79.2546C10.8878 76.5748 17.8196 73.085 18.4607 72.0458C19.2504 70.7658 17.5362 70.3066 15.4771 71.2464C13.961 71.9384 13.0267 71.8736 11.2773 70.9554L9.02729 69.7745L11.4748 68.5066C14.2416 67.0734 15.1119 65.4519 14.4762 62.9147C13.8606 60.4575 17.2551 58.652 24.5678 57.5472C28.497 56.9536 31.484 55.9655 33.495 54.5941C37.0413 52.1758 36.4321 50.3481 32.6085 51.9346C30.7985 52.6857 29.4801 52.6939 26.7995 51.9708C23.5419 51.0921 23.4258 50.9667 24.8829 49.8994C27.321 48.1135 32.3635 47.0393 35.6766 47.6C37.7731 47.9548 39.4903 47.7065 41.2527 46.7935L43.7995 45.4742L42.123 43.6866C41.2009 42.7034 40.4465 41.6876 40.4465 41.4293C40.4465 40.6877 45.2499 39.2046 47.6517 39.2046C48.8505 39.2046 52.1369 38.3352 54.9549 37.2727C57.7728 36.2102 64.2741 34.7597 69.4022 34.0493C77.7196 32.8971 79.4809 32.883 85.7177 33.9189C89.563 34.5576 94.8636 35.3194 97.4966 35.6118C100.13 35.9041 104.79 36.8321 107.853 37.6739C114.967 39.6291 119.601 39.6053 127.549 37.5725C131.058 36.6749 134.605 36.1553 135.431 36.4179C136.257 36.6804 137.661 36.5047 138.551 36.0274C139.778 35.3698 140.729 35.4493 142.48 36.356C144.061 37.1751 146.013 37.4089 148.671 37.0975C151.474 36.7689 153.929 37.1092 157.514 38.3232C160.243 39.2476 163.273 40.0038 164.249 40.0038C165.977 40.0038 165.983 40.0332 164.474 41.1457C162.994 42.2366 162.99 42.3127 164.379 42.852C165.179 43.1625 167.956 43.1944 170.549 42.9228C175.234 42.4323 175.274 42.4461 176.58 44.9765L177.895 47.5239L179.602 45.3794C180.583 44.147 182.915 42.751 185.083 42.0972C188.36 41.1092 189.355 41.1125 192.647 42.1223C194.97 42.8351 197.751 43.0947 199.834 42.7934C202.486 42.4097 203.718 42.6487 205.448 43.883C207.633 45.4412 207.693 45.442 209.631 43.9378C210.712 43.0983 212.937 42.0374 214.575 41.5802C218.497 40.4856 219.827 38.1531 217.472 36.5005C215.807 35.3319 215.879 35.2427 220.258 33.0918C223.523 31.4876 224.993 31.1233 225.63 31.7608C226.266 32.3984 226.26 33.0997 225.606 34.323C224.492 36.4081 225.879 39.5599 227.616 38.892C228.241 38.6519 229.277 38.6573 229.919 38.904C230.927 39.2915 230.911 39.62 229.8 41.3178C226.732 46.008 233.61 44.6791 238.266 39.682C240.159 37.6503 243.092 37.0344 245.841 38.0911C247.617 38.7736 247.451 39.3323 244.51 42.5618C241.007 46.4103 239.214 47.1974 233.951 47.1974C231.407 47.1974 228.405 47.7494 227.006 48.4742C225.069 49.4774 224.125 49.5609 222.597 48.8637C219.749 47.5638 218.758 48.6457 220.801 50.824L222.544 52.6834L219.065 53.6725C217.152 54.2165 213.971 54.7142 211.996 54.7784C209.132 54.8717 208.404 55.1831 208.4 56.3171C208.396 57.2875 207.003 58.3088 204.011 59.5337C194.318 63.5027 186.096 70.6589 189.073 72.5351C189.631 72.8866 190.516 74.1535 191.04 75.3503C191.644 76.7284 192.808 77.6896 194.215 77.9717C195.437 78.2168 198.591 79.4799 201.224 80.7788C203.857 82.0777 207.089 83.3756 208.405 83.6631C212.03 84.4544 212.062 84.5377 210.373 88.8278C208.929 92.4982 208.9 93.0219 210.019 95.19C210.69 96.4894 211.678 97.5398 212.216 97.5242C214.83 97.4484 217.282 95.0314 218.805 91.0276C220.257 87.2115 220.918 86.4997 225.085 84.2701C231.235 80.9796 233.793 77.7389 233.111 74.0998C232.667 71.7295 232.898 71.1732 234.923 69.7285C236.2 68.8181 237.889 66.6391 238.678 64.8863C240.442 60.9684 243.276 59.6103 248.055 60.3929C252.293 61.087 257.305 63.7824 257.911 65.6932C258.159 66.4775 257.953 67.8861 257.452 68.8234C256.694 70.243 256.837 70.8425 258.31 72.4133L260.079 74.2991L262.966 72.7995C264.555 71.9748 267.1 70.3659 268.624 69.2242L271.393 67.1484L272.043 68.9102C272.401 69.8792 272.503 71.1712 272.269 71.7812C272.035 72.3913 272.217 73.5885 272.673 74.4417C273.186 75.4015 273.226 76.4872 272.778 77.2892C272.272 78.1936 272.61 79.5671 273.894 81.8319C275.734 85.0764 275.734 85.079 274.119 86.2126C271.993 87.7042 273.357 89.2861 275.69 88.0351C278.007 86.7928 280.66 86.9544 282.296 88.4375C284.714 90.6298 282.703 93.2526 276.284 96.2778C269.302 99.5683 266.19 100.22 257.077 100.301C250.348 100.361 249.457 100.575 242.915 103.717C239.075 105.561 235.933 107.386 235.933 107.773C235.933 109.422 237.143 109.279 241.785 107.079C244.52 105.783 248.046 104.747 249.725 104.747C252.593 104.746 252.698 104.835 251.802 106.511C251.283 107.482 250.164 108.84 249.315 109.529C247.981 110.611 247.903 111.068 248.738 112.905C249.991 115.659 253.263 116.984 257.176 116.323L260.269 115.8L257.891 117.444C256.583 118.348 254.429 119.322 253.103 119.608C251.778 119.895 249.055 120.957 247.051 121.968C245.018 122.994 242.975 123.537 242.426 123.198C241.163 122.416 242.496 121.243 246.598 119.526C250.247 117.999 249.664 116.376 245.732 117.115C244.2 117.403 239.233 119.277 234.695 121.28C227.611 124.406 226.375 125.231 225.962 127.112C225.455 129.424 223.726 130.518 217.645 132.371C215.705 132.962 213.192 134.391 212.059 135.546C210.927 136.701 208.76 138.43 207.242 139.389C205.725 140.347 204.272 142.027 204.014 143.121C203.588 144.924 203.489 144.967 202.956 143.578C201.958 140.975 200.454 143.52 200.367 147.957C200.278 152.504 197.978 155.606 192.932 157.981C187.758 160.416 180.396 166.17 178.905 168.944C177.588 171.394 177.533 172.348 178.344 178.644C179.101 184.518 179.056 185.991 178.06 187.921C177.316 189.362 176.448 190.051 175.726 189.773C174.014 189.115 171.92 182.058 172.507 178.924C172.914 176.747 172.644 175.922 171.025 174.398C169.72 173.17 168.515 172.703 167.491 173.029C166.636 173.3 164.22 172.785 162.118 171.882C158.898 170.5 157.87 170.384 155.571 171.144C154.013 171.659 152.464 172.881 151.957 173.996C151.203 175.655 150.703 175.868 148.619 175.419C147.271 175.129 145.199 174.395 144.014 173.788C141.095 172.295 139.461 172.399 136.182 174.287C134.653 175.168 131.533 176.854 129.248 178.033C126.623 179.389 124.819 180.932 124.346 182.226C123.935 183.353 122.463 187.746 121.077 191.988L118.556 199.7L119.843 204.678C122.209 213.825 125.501 216.563 132.36 215.089C137.531 213.978 140.636 211.728 141.777 208.263C142.502 206.063 143.284 205.335 145.625 204.684C149.148 203.704 150.619 203.668 151.972 204.528C153.088 205.238 152.696 206.406 147.697 217.248C144.266 224.688 144.513 225.353 150.39 224.504C155.744 223.73 160.638 224.324 161.21 225.816C161.433 226.398 161.07 230.324 160.405 234.541C159.213 242.084 159.222 242.252 160.937 245.032C161.895 246.586 163.693 248.382 164.931 249.024C166.908 250.047 167.528 250.045 170.015 249.004C173.967 247.35 176.113 247.525 178.858 249.725C181.052 251.484 181.363 251.534 183.087 250.402C184.111 249.73 185.508 248.064 186.191 246.701C187.731 243.626 190.327 241.466 192.508 241.442C193.418 241.432 195.007 240.525 196.038 239.426C198.131 237.194 201.817 236.467 200.015 238.641C198.503 240.466 197.639 246.335 198.613 248.159C199.425 249.678 199.49 249.669 200.966 247.843C202.017 246.542 202.229 245.708 201.655 245.133C200.284 243.76 200.697 242.619 203.247 240.731C205.895 238.77 207.943 238.971 210.227 241.416C211.903 243.209 220.847 245.633 223.41 244.989C227.314 244.007 237.861 250.432 241.824 256.204C243.711 258.953 249.74 261.719 252.391 261.053C257.843 259.682 265.319 265.155 267.068 271.797C267.588 273.776 268.373 275.618 268.812 275.892C269.976 276.618 268.232 279.489 264.42 283.122C261.985 285.442 261.403 286.442 262.088 287.128C262.774 287.814 263.9 287.213 266.604 284.716C270.537 281.084 271.85 280.715 273.82 282.689C275.019 283.89 274.982 284.134 273.339 285.886C272.361 286.929 270.995 287.806 270.303 287.834C269.574 287.863 269.869 288.214 271.004 288.667C272.563 289.291 273.376 289.115 274.993 287.806C279.206 284.396 280.197 284.233 283.939 286.327C286.372 287.688 287.346 288.725 287.223 289.821C286.882 292.869 287.6 293.544 289.709 292.16C291.386 291.059 292.536 291.007 298.146 291.776C304.113 292.595 304.894 292.921 307.757 295.789C309.882 297.918 312.273 299.318 315.276 300.192C319.308 301.367 319.746 301.725 320.478 304.445C321.538 308.39 320.296 312.767 316.936 316.925C315.5 318.701 313.741 321.308 313.026 322.719C312.311 324.13 310.791 326.221 309.648 327.366C307.713 329.305 307.605 329.79 308.087 334.393C309.03 343.385 304.639 360.162 300.404 363.75C299.025 364.918 297.845 365.193 295.658 364.853C293.861 364.575 292.53 364.754 292.179 365.324C291.866 365.831 290.124 366.9 288.307 367.7C286.49 368.501 283.786 370.198 282.297 371.472C279.719 373.677 279.633 373.921 280.5 376.554C281.5 379.589 280.827 383.183 278.684 386.248C277.991 387.239 277.424 388.925 277.424 389.994C277.424 391.064 276.591 393.052 275.574 394.412C274.556 395.773 272.594 398.887 271.212 401.332C267.814 407.349 265.77 408.391 260.842 406.622C256.565 405.087 254.285 404.903 254.285 406.095C254.285 406.544 255.137 407.3 256.179 407.776C257.221 408.251 258.845 410.187 259.787 412.078C261.191 414.894 261.34 415.871 260.608 417.48C259.475 419.971 255.141 422.063 251.113 422.063C247.545 422.063 246.66 422.937 247.893 425.244C248.653 426.668 248.142 428.958 246.671 430.715C246.551 430.857 245.302 430.377 243.894 429.647C240.534 427.907 239.344 429.016 241.043 432.306C241.733 433.644 243.047 434.977 243.961 435.267C245.533 435.767 245.55 435.878 244.272 437.292C243.528 438.116 243.142 439.367 243.413 440.075C243.705 440.836 243.054 442.479 241.821 444.099C239.816 446.733 239.787 446.915 241.073 448.88C241.808 450.004 242.954 451.133 243.621 451.389C246.024 452.313 246.422 455.469 244.59 459.067C242.754 462.671 242.472 466.285 243.893 468C245.185 469.559 240.839 472.596 238.884 471.5ZM180.08 125.321C182.212 120.858 186.179 117.535 189.373 117.535C191.673 117.535 191.7 117.909 189.595 120.59L187.939 122.698L189.638 124.076C191.006 125.186 191.713 125.282 193.273 124.57C194.338 124.084 195.429 122.991 195.699 122.141C196.065 120.985 196.661 120.715 198.065 121.068C199.366 121.395 200.18 121.116 200.715 120.158C202.336 117.256 198.211 113.544 195.173 115.172C193 116.338 190.161 114.02 190.767 111.575C190.992 110.669 190.529 109.092 189.729 108.034C188.08 105.854 185.571 105.624 180.08 107.151C178.105 107.7 175.853 108.125 175.075 108.095C174.298 108.065 173.87 108.378 174.125 108.791C174.38 109.204 174.298 109.55 173.943 109.56C173.588 109.569 172.404 110.265 171.312 111.106L169.326 112.634L171.556 113.483C173.299 114.147 174.327 114.052 176.263 113.049C178.538 111.87 178.96 111.871 181.443 113.057C182.939 113.772 184.981 114.139 186.015 113.879C187.043 113.62 188.105 113.766 188.374 114.202C188.649 114.648 187.525 115.222 185.807 115.513C181.137 116.303 178.711 118.251 175.324 123.929C172.495 128.672 172.333 129.244 173.461 130.498C174.567 131.728 174.872 131.747 176.39 130.684C177.322 130.031 178.983 127.618 180.08 125.321ZM194.576 130.255C197.416 128.803 197.69 128.439 196.689 127.436C195.688 126.433 195.055 126.499 191.799 127.942C187.975 129.636 186.762 131.922 189.686 131.922C190.581 131.922 192.782 131.172 194.576 130.255ZM208.724 124.215C210.386 123.049 210.447 122.82 209.275 122.163C207.55 121.196 202.421 122.863 202.421 124.391C202.421 125.965 206.387 125.855 208.724 124.215ZM268.647 469.381C268.647 469.029 269.078 468.31 269.604 467.783C270.131 467.255 270.26 466.823 269.892 466.823C269.523 466.823 268.791 467.413 268.265 468.134C267.509 469.169 266.988 469.258 265.783 468.558C264.923 468.058 264.713 467.661 265.303 467.647C265.877 467.633 266.125 467.263 265.854 466.823C265.333 465.979 266.703 465.749 270.642 466.019C274.157 466.259 274.511 466.773 272.338 468.486C270.314 470.081 268.647 470.485 268.647 469.381ZM935.002 449.321C932.719 447.872 937.473 444.673 949.259 439.727C952.55 438.345 957.565 435.456 960.404 433.307C965.231 429.652 965.631 429.494 966.587 430.862C968.039 432.938 967.184 434.441 963.637 436.043C961.942 436.809 959.812 438.293 958.902 439.341C957.992 440.389 956.529 441.246 955.649 441.246C954.77 441.246 952.703 442.458 951.056 443.938C945.419 449.006 938.278 451.4 935.002 449.321ZM879.16 438.938C878.331 438.412 878.285 437.87 878.961 436.605C879.445 435.699 879.841 433.83 879.841 432.453C879.841 430.201 880.022 430.012 881.636 430.581C882.624 430.929 884.688 431.261 886.224 431.318C887.76 431.376 889.294 431.475 889.634 431.539C890.956 431.787 887.422 435.818 884.246 437.682C880.463 439.903 880.619 439.864 879.16 438.938ZM971.361 431.948C971.083 431.67 971.741 430.746 972.822 429.894C974.45 428.611 974.64 428.069 973.928 426.736C972.898 424.808 974.428 422.739 977.971 421.269C980.716 420.13 981.408 417.818 980.672 412.24C980.165 408.402 980.227 408.163 981.462 409.186C982.431 409.989 982.669 411 982.324 412.846C981.945 414.868 982.285 415.919 983.969 417.923C985.788 420.089 986.329 420.324 987.744 419.566C989.154 418.81 989.32 418.879 988.876 420.037C988.59 420.784 988.356 421.536 988.356 421.709C988.356 421.881 987.189 422.621 985.763 423.352C984.336 424.084 981.554 426.019 979.579 427.652C976.368 430.308 973.063 432.454 972.184 432.454C972.009 432.454 971.639 432.226 971.361 431.948ZM886.986 421.625C885.306 419.834 884.995 419.765 883.381 420.824C881.324 422.174 877.458 421.385 874.36 418.983C872.708 417.701 872.593 417.288 873.445 415.693C874.172 414.331 874.196 413.377 873.54 411.934C873.056 410.869 872.66 409.296 872.66 408.438C872.66 406.501 871.405 406.409 870.366 408.269C869.938 409.035 869.359 409.432 869.08 409.152C868.801 408.872 869.725 407.328 871.133 405.721C874.601 401.765 873.247 400.691 868.668 403.764C866.694 405.088 864.952 406.534 864.796 406.978C864.639 407.422 863.691 406.052 862.688 403.934C861.601 401.637 859.723 399.329 858.035 398.216C855.5 396.542 854.64 396.405 849.77 396.89C842.627 397.602 835.736 399.367 831.226 401.638C829.176 402.67 825.175 403.727 822.089 404.051C819.07 404.369 814.269 405.507 811.42 406.582C807.062 408.225 805.822 408.397 803.614 407.667C800.653 406.688 799.423 404.67 801.339 403.934C802.032 403.667 803.291 401.833 804.136 399.858C805.489 396.696 805.564 395.712 804.762 391.627C804.098 388.247 804.08 385.047 804.694 379.844C805.158 375.915 805.335 371.927 805.088 370.981C804.842 370.036 805.227 367.722 805.945 365.838C807.211 362.517 807.518 362.3 816.078 358.668C820.933 356.609 825.902 354.923 827.121 354.923C830.419 354.923 834.503 351.78 836.754 347.509C838.146 344.869 839.111 343.864 839.946 344.188C842.277 345.09 842.737 344.913 842.557 343.182C842.442 342.069 842.919 341.259 843.869 340.957C844.69 340.696 846.208 339.24 847.242 337.723C848.301 336.169 850.477 334.418 852.223 333.716C855.136 332.545 855.426 332.562 857.01 334.005C859.933 336.667 862.005 337.444 862.995 336.249C863.476 335.669 863.641 334.965 863.362 334.686C862.449 333.771 866.628 328.518 868.671 328.013C869.768 327.742 872.02 326.841 873.676 326.01C876.258 324.714 877.167 324.628 880.059 325.406C886.297 327.083 886.504 327.358 884.184 330.87C881.2 335.387 881.991 337.153 889.31 342.314C892.69 344.696 895.88 346.504 896.399 346.33C896.919 346.157 898.563 344.332 900.051 342.276C902.081 339.474 902.867 337.437 903.192 334.142C903.654 329.461 905.889 322.952 907.034 322.952C907.413 322.952 908.282 324.877 908.965 327.229C909.647 329.582 911.078 332.328 912.144 333.331C914.635 335.675 916.082 342.231 914.964 346.104C914.222 348.67 914.365 349.082 916.906 351.699C918.414 353.252 920.799 357.041 922.206 360.119C923.613 363.196 926.15 367.55 927.844 369.794L930.923 373.875L930.048 380.18C929.413 384.753 928.429 387.802 926.466 391.285C923.459 396.621 918.963 401.712 916.592 402.466C915.74 402.737 913.766 404.739 912.205 406.916C910.643 409.092 909.015 410.873 908.586 410.873C908.156 410.873 906.331 412.741 904.53 415.024C901.525 418.832 900.972 419.18 897.841 419.239C895.439 419.285 893.599 419.937 891.627 421.445L888.825 423.585L886.986 421.625ZM497.913 404.82C496.223 403.127 495.941 402.261 496.318 399.93C496.674 397.736 496.335 396.446 494.818 394.208C493.74 392.619 492.858 390.928 492.858 390.45C492.858 389.972 491.447 387.687 489.722 385.371C487.057 381.793 486.509 380.363 486.07 375.835C485.294 367.847 482.748 359.2 479.325 352.932C477.642 349.851 476.026 345.85 475.733 344.042C475.11 340.194 476.67 334.467 480.231 327.528L482.6 322.912L481.269 318.897C480.524 316.651 480.16 313.993 480.443 312.865C480.774 311.544 480.418 309.97 479.413 308.307C478.568 306.91 477.314 303.789 476.626 301.371C475.706 298.141 474.424 296.042 471.796 293.458C466.739 288.488 466.081 286.531 467.651 281.123C470.846 270.114 467.394 263.693 458.962 264.959C455.679 265.452 455.553 265.391 455.09 263.068C454.734 261.285 453.769 260.236 451.347 258.999C448.2 257.39 446.853 257.384 442.989 258.961C442.111 259.319 438.521 260.56 435.01 261.719C429.731 263.461 428.146 263.686 425.848 263.018C423.671 262.386 421.837 262.549 417.383 263.774C412.78 265.039 411.111 265.174 408.624 264.487C403.434 263.051 394.518 255.001 393.25 250.605C392.268 247.204 386.164 239.277 384.087 238.705C382.767 238.342 382.605 238.061 383.413 237.539C384.226 237.013 384.084 236.747 382.815 236.415C380.798 235.886 380.597 234.236 382.548 234.219C383.741 234.208 383.77 234.094 382.747 233.432C381.993 232.944 381.909 232.652 382.521 232.644C383.154 232.636 382.913 231.651 381.826 229.805C380.295 227.206 380.263 226.863 381.433 225.569C385.002 221.617 385.785 213.11 383.071 207.749C381.775 205.191 382.609 201.656 385.373 197.981C386.414 196.597 388.446 193.231 389.889 190.5C392.413 185.722 398.039 179.08 399.562 179.08C401.247 179.08 406.684 173.225 406.684 171.41C406.684 167.313 409.13 163.228 413.117 160.665C415.259 159.288 417.769 156.933 418.695 155.432C420.589 152.362 420.857 152.262 423.063 153.802C423.929 154.406 426.08 155.143 427.843 155.44C430.532 155.892 431.818 155.566 435.822 153.421C442.712 149.73 446.969 148.809 454.852 149.301C460.051 149.626 462.392 149.418 464.912 148.408C468.624 146.921 471.832 147.801 470.964 150.069C470.703 150.75 470.862 151.758 471.318 152.308C471.891 153 471.887 153.992 471.303 155.53C470.57 157.462 470.733 158.037 472.549 159.937C473.699 161.139 475.756 162.346 477.122 162.619C483.535 163.904 485.358 164.736 486.682 166.982C487.652 168.627 488.924 169.471 491.027 169.866C492.662 170.173 495.036 170.962 496.303 171.618C498.454 172.732 498.733 172.692 500.527 171.003C501.733 169.868 502.28 168.667 501.997 167.774C501.749 166.992 501.938 165.619 502.416 164.723C503.651 162.412 507.156 162.639 512.629 165.384C518.591 168.374 529.898 170.507 533.906 169.398C535.834 168.865 537.688 168.858 539.376 169.378C544.889 171.075 547.713 169.747 548.465 165.101C548.715 163.557 549.142 162.295 549.414 162.295C549.93 162.295 550.2 159.975 550.274 154.901C550.298 153.253 550.687 151.904 551.139 151.904C551.676 151.904 551.649 151.325 551.062 150.225C550.081 148.389 548.091 148.43 543.328 150.388C541.07 151.317 540.441 151.277 538.418 150.08C535.794 148.528 533.102 148.295 532.325 149.553C531.748 150.489 527.668 149.833 525.455 148.449C523.866 147.454 522.38 144.494 522.38 142.32C522.38 141.487 521.572 140.235 520.585 139.538C519.057 138.46 518.968 138.154 519.986 137.486C520.645 137.055 521.999 136.894 522.995 137.129C524.267 137.428 525.436 136.927 526.911 135.449C528.3 134.057 529.989 133.289 531.881 133.189C533.458 133.105 535.741 132.38 536.956 131.579C539.593 129.838 545.579 130.322 550.223 132.651C556.486 135.791 562.048 135.606 564.287 132.184C565.452 130.403 565.458 130.029 564.353 128.339C563.679 127.31 560.444 124.938 557.164 123.068L551.2 119.669L552.317 117.504C552.932 116.314 553.234 115.138 552.988 114.892C552.742 114.645 552.836 113.97 553.197 113.392C553.557 112.813 553.923 111.875 554.009 111.307C554.192 110.097 552.905 110.431 546.56 113.242C542.876 114.874 542.329 115.374 543.146 116.36C543.681 117.006 544.883 117.551 545.817 117.57C547.126 117.597 546.816 117.974 544.46 119.22C541.599 120.732 541.28 120.751 539.419 119.531C537.829 118.487 537.621 118.001 538.375 117.091C539.123 116.188 539.011 115.84 537.83 115.396C537.012 115.088 535.958 114.322 535.488 113.694C533.202 110.642 525.951 118.67 523.843 126.586C522.853 130.302 522.886 130.495 524.749 131.903L526.683 133.364L523.135 134.097C521.184 134.5 518.554 134.547 517.291 134.202C514.961 133.564 512.007 134.525 512.007 135.921C512.007 136.332 511.464 136.459 510.8 136.204C510.137 135.948 509.083 136.164 508.458 136.683C507.49 137.488 507.6 138.148 509.204 141.171C510.942 144.445 510.996 144.893 509.912 147.07C508.553 149.798 507.29 149.595 505.371 146.341C504.033 144.072 504.042 144.02 505.812 143.769C508.046 143.451 508.19 142.026 506.023 141.679C501.08 140.888 498.443 138.278 498.443 134.177C498.443 130.976 495.481 127.448 491.89 126.37C490.024 125.81 487.995 124.634 487.381 123.757C486.768 122.879 484.972 121.62 483.391 120.958C481.81 120.297 480.04 119.074 479.459 118.242C478.624 117.048 478.075 116.905 476.852 117.56C476.001 118.017 475.304 118.905 475.304 119.533C475.304 121.609 485.474 130.997 490.445 133.511C495.716 136.176 496.539 137.128 492.877 136.322C489.612 135.604 488.723 136.323 489.84 138.778C490.624 140.503 490.496 141.028 488.918 142.546L487.085 144.311L487.502 141.93C488.164 138.15 483.189 132.721 479.064 132.721C477.552 132.721 471.742 127.076 470.22 124.127C468.594 120.977 466.784 120.368 464.22 122.11C460.358 124.733 457.463 125.62 454.434 125.107C450.41 124.426 447.878 125.832 448.519 128.391C448.854 129.727 448.668 130.323 447.915 130.323C447.317 130.323 445.784 131.222 444.509 132.321C443.234 133.419 441.916 134.318 441.581 134.319C440.594 134.32 437.809 139.37 437.805 141.164C437.802 142.88 434.682 146.261 431.671 147.81C430.713 148.303 428.481 148.707 426.712 148.707C424.279 148.707 423.282 149.109 422.614 150.358C421.74 151.995 421.713 151.991 419.668 149.942C417.75 148.021 416.645 147.54 412.774 146.94C410.74 146.624 410.396 142.012 411.918 135.44C412.568 132.631 412.887 129.483 412.627 128.445C411.871 125.427 414.238 123.648 418.197 124.257C427.34 125.664 432.688 125.741 433.941 124.486C435.664 122.76 436.441 117.07 435.389 113.879C434.704 111.798 433.761 110.948 430.947 109.871C426.81 108.288 426.722 106.757 430.768 106.716C432.309 106.701 434.532 106.056 435.709 105.284C436.885 104.512 438.186 104.09 438.599 104.346C439.727 105.044 443.998 102.578 445.417 100.41C446.102 99.3615 447.452 98.3026 448.417 98.0563C449.381 97.8101 451.965 95.9334 454.159 93.8859C457.27 90.9832 458.902 90.0731 461.57 89.7541C464.874 89.359 468.198 86.6367 466.637 85.6028C465.668 84.9602 464.858 81.0899 465.398 79.6801C465.654 79.0121 466.783 77.8616 467.908 77.1233L469.953 75.7811L469.428 79.0699C468.972 81.9244 469.089 82.3277 470.308 82.1235C471.081 81.9942 472.526 81.4408 473.52 80.8938C475.034 80.0609 475.405 80.1014 475.804 81.1429C476.488 82.9279 474.587 85.0268 473.274 83.9357C472.549 83.3331 472.09 83.3549 471.685 84.0112C471.267 84.6882 470.94 84.6514 470.46 83.8733C470.1 83.2896 469.622 82.9955 469.398 83.2197C469.174 83.444 469.812 84.6589 470.816 85.9196C472.507 88.0447 472.83 88.1455 475.241 87.3037C477.305 86.5827 478.297 86.6318 480.055 87.5425C482.039 88.5705 482.709 88.5215 486.523 87.0697C489.865 85.7977 491.182 85.6346 492.662 86.3096C494.022 86.9307 495.03 86.9179 496.294 86.2635C499.883 84.4058 500.878 83.005 500.432 80.4338C499.772 76.6226 500.981 75.3742 504.167 76.5788C506.335 77.3985 506.968 77.366 507.948 76.3845C508.985 75.3453 508.896 74.9615 507.196 73.1487C505.56 71.4046 505.446 70.9711 506.443 70.2971C507.09 69.86 509.514 69.7034 511.829 69.9491C516.067 70.3987 521.348 68.7404 520.428 67.2489C519.622 65.9427 514.758 65.5653 510.637 66.4891C506.982 67.3085 506.023 67.2422 503.222 65.9769C498.871 64.0116 498.359 61.7123 501.343 57.5462C505.184 52.1838 505.886 50.4749 504.792 49.1543C503.172 47.1988 501.58 47.8363 497.879 51.9232C495.924 54.0828 493.259 56.2915 491.957 56.8315C490.656 57.3715 489.046 58.8692 488.38 60.1596C487.295 62.2611 487.297 62.7015 488.396 64.3824C489.071 65.4146 490.351 66.4905 491.241 66.7733C493.688 67.5515 493.204 69.0121 489.703 71.4117C488.626 72.1497 487.19 74.2377 486.511 76.0516C485.661 78.3246 484.368 79.8756 482.352 81.0418C479.509 82.6859 479.38 82.6923 477.809 81.2682C476.92 80.4621 475.976 78.8179 475.712 77.6145C475.449 76.4111 474.25 74.2476 473.05 72.8068L470.866 70.1872L468.098 71.8776C466.576 72.8073 464.612 73.5613 463.734 73.5532C461.202 73.5298 458.271 70.7899 458.075 68.2634C457.977 67.0079 457.652 65.3649 457.351 64.6123C456.636 62.8221 460.209 59.4645 463.922 58.4375C467.649 57.4068 475.207 52.1005 476.495 49.6108C477.068 48.5033 479.009 46.2746 480.809 44.6583C482.608 43.0419 484.081 41.3632 484.081 40.9278C484.081 40.4924 485.786 39.5273 487.871 38.7832C489.955 38.0391 493.456 36.689 495.65 35.783C498.344 34.6706 501.713 34.0825 506.023 33.9721C513.554 33.7791 518.48 34.7791 522.544 37.3263C524.583 38.6043 526.192 39.0403 527.732 38.7319C530.487 38.1799 545.172 42.7396 545.784 44.3368C546.399 45.9423 542.187 47.4577 538.563 46.9349C536.904 46.6954 533.471 46.0551 530.935 45.5119C527.522 44.7807 526.093 44.7576 525.428 45.423C524.764 46.0884 525.096 46.5795 526.707 47.3148C527.904 47.8611 529.402 49.3135 530.037 50.5424C531.652 53.6715 536.825 56.2223 539.495 55.2057C542.059 54.229 542.042 53.9209 539.336 52.4504C536.833 51.0903 537.988 50.7962 541.131 51.9933C543.641 52.9491 546.484 51.76 545.822 50.0316C545.512 49.222 546.384 48.6375 548.844 48.0061C554.108 46.6549 554.493 46.4617 554.057 45.3924C552.405 41.3475 552.382 41.4637 554.785 41.7386C556.067 41.8852 557.004 42.4346 556.897 42.9773C556.792 43.5137 557.46 44.357 558.382 44.8514C559.767 45.5939 560.86 45.3294 564.668 43.3296C570.253 40.3973 574.6 39.4413 576.222 40.7891C577.126 41.5407 578.625 41.546 582.963 40.8129C586.032 40.2944 588.891 40.086 589.317 40.3497C589.743 40.6135 590.327 40.448 590.614 39.9819C591.243 38.9628 589.504 36.6503 588.552 37.2396C587.403 37.9511 583.63 36.6766 584.45 35.8543C585.277 35.0262 607.482 40.2094 608.811 41.5406C609.707 42.438 612.543 41.2409 612.543 39.9654C612.543 39.5355 610.96 38.4131 609.024 37.4712C603.023 34.5505 602.638 29.8728 608.281 28.4538C611.557 27.6303 612.973 28.5803 617.504 34.6391C623.386 42.5052 623.236 42.105 621.314 44.8084C619.891 46.8102 619.805 47.2787 620.793 47.6583C622.663 48.3773 626.667 45.8611 627.23 43.6122C627.891 40.9771 626.658 38.7313 623.714 37.2064C621.4 36.0075 619.724 33.8107 619.724 31.9746C619.724 31.3487 620.592 31.1926 622.318 31.5083C624.904 31.9816 627.044 31.0419 632.901 26.8601C634.241 25.9037 636.505 25.2735 638.789 25.2216C643.42 25.1164 644.919 24.3375 643.587 22.7287C643.064 22.0978 642.802 21.4152 643.005 21.2118C644.024 20.191 657.16 18.3516 660.186 18.8061C663.097 19.2434 663.998 19.0068 666.393 17.1769C667.934 15.9996 669.194 14.7193 669.194 14.3318C669.194 13.3548 662.222 13.4421 661.614 14.4267C660.778 15.7815 659.695 15.3101 660 13.7243C660.257 12.3853 659.582 12.1674 653.77 11.7141C637.9 10.4763 636.61 10.1859 638.514 8.27872C640.188 6.60193 644.294 6.63444 647.73 8.35168C649.138 9.05529 651.47 9.63098 652.913 9.63098C654.356 9.63098 655.758 9.99065 656.029 10.4303C656.3 10.8699 657.698 11.2295 659.135 11.2295C663.114 11.2295 670.808 12.9514 670.326 13.734C670.09 14.115 670.835 14.4267 671.98 14.4267C673.124 14.4267 675.21 15.0461 676.615 15.8032C678.503 16.8213 681.142 17.1875 686.748 17.21C692.775 17.2342 694.778 17.5443 696.523 18.723C697.729 19.5384 698.712 20.4339 698.705 20.7131C698.699 20.9922 696.858 22.2355 694.613 23.4758C689.193 26.4713 690.339 27.7768 696.895 26.075C701.141 24.9728 702.117 24.9657 705.633 26.0116C708.517 26.8697 710.319 26.9799 712.275 26.4179C714.228 25.8568 716.232 25.9773 719.634 26.8601C723.182 27.7813 725.022 27.875 727.271 27.2493C732.404 25.8212 738.719 26.2245 742.383 28.2144C744.204 29.2036 747.562 31.0337 749.845 32.2815C753.893 34.4932 754.069 34.5177 756.877 33.2568C759.227 32.2015 760.538 32.1132 764.004 32.777C767.449 33.4367 768.703 33.3563 770.643 32.3513C772.541 31.368 772.846 30.8847 772.122 30.0103C770.721 28.3193 775.692 27.6907 781.799 28.7865C784.596 29.2884 788.142 29.7894 789.678 29.8998C791.214 30.0102 794.215 30.887 796.346 31.8483C799.598 33.3142 802.051 33.6463 811.563 33.908C820.589 34.1563 823.463 34.5182 825.64 35.6806C827.85 36.8606 830.369 37.1607 838.749 37.2425C846.458 37.3178 849.912 37.684 852.199 38.6686C855.89 40.2578 857.367 39.675 855.357 37.4218C853.912 35.801 853.921 35.7988 859.494 36.3534C868.834 37.2829 880.038 39.3302 883.83 40.8006C885.805 41.5662 889.569 42.4558 892.195 42.7776C894.82 43.0993 898.651 44.2168 900.708 45.2609C903.83 46.8456 904.844 47.0207 906.849 46.3206C909.59 45.3633 911.369 46.0527 915.555 49.6953L918.156 51.9587L916.196 52.4516C914.229 52.9462 909.004 51.6506 907.204 50.2217C906.675 49.8015 905.933 49.6491 905.555 49.8831C905.177 50.117 903.311 49.771 901.408 49.1142C896.95 47.5759 894.971 48.1537 897.001 50.4007C898.388 51.9353 898.358 51.9675 895.713 51.7828C890.766 51.437 892.126 52.9007 899.389 55.7388C903.339 57.282 906.74 58.7087 906.946 58.9092C907.695 59.6353 905.226 60.5355 903.43 60.1915C901.457 59.8138 896.597 61.9344 896.597 63.1727C896.597 63.5838 895.829 64.637 894.89 65.5131C893.322 66.9765 892.998 67.0098 890.901 65.9233C888.938 64.9066 888.31 64.896 886.424 65.8481C885.217 66.4571 883.154 67.2146 881.84 67.5315C880.526 67.8483 879.004 68.4791 878.457 68.9334C876.852 70.2684 879.683 74.1542 883.671 76.088C885.843 77.1412 887.415 78.5524 887.883 79.8676C888.293 81.022 889.163 82.9179 889.816 84.0807C890.88 85.9758 890.871 86.2457 889.728 86.6852C888.89 87.0073 888.643 87.6528 889.008 88.5674C889.313 89.333 889.659 90.8586 889.775 91.9576C889.892 93.0566 890.243 94.5528 890.557 95.2824C890.965 96.2322 890.628 96.7675 889.37 97.1675C887.97 97.6126 887.027 97.0763 884.725 94.5268C883.136 92.7673 880.485 90.3448 878.835 89.1436C877.185 87.9423 874.228 84.8185 872.265 82.2019C868.801 77.5862 868.73 77.3758 869.879 75.1492C870.531 73.8869 871.077 72.027 871.092 71.016C871.108 70.0051 871.614 68.2846 872.217 67.1928C873.37 65.1075 872.926 63.4426 870.462 60.6113C868.844 58.7523 865.966 60.1459 866.692 62.4366C867.361 64.547 865.309 65.2309 862.95 63.6841C861.927 63.0135 859.572 62.2221 857.717 61.9255C854.532 61.4162 854.295 61.5141 853.47 63.6835C852.989 64.947 852.788 66.9444 853.022 68.1222C853.387 69.9573 853.133 70.3328 851.248 70.7474C849.966 71.0296 847.77 70.6958 845.98 69.9466C844.014 69.1238 842.163 68.875 840.83 69.2546C839.685 69.5806 835.816 69.8766 832.231 69.9123C826.551 69.9688 825.457 70.2172 823.731 71.8414C822.642 72.8666 821.333 75.3844 820.822 77.4364C820.312 79.4884 819.376 81.9679 818.743 82.9464C817.65 84.6377 817.755 84.8086 820.882 86.4066C824.276 88.1411 827.977 88.598 830.782 87.6291C832.946 86.8816 839.547 92.0369 841.608 96.0838C842.452 97.7415 843.847 99.4756 844.709 99.9374C847.968 101.685 848.63 113.149 845.904 120.643C844.017 125.833 841.906 127.529 838.805 126.348C837.62 125.897 836.53 125.528 836.384 125.528C836.237 125.528 835.35 127.003 834.411 128.807C833.179 131.175 832.939 132.368 833.546 133.102C834.709 134.505 833.849 136.331 831.524 137.392C830.451 137.881 829.573 138.63 829.573 139.056C829.573 139.482 832.069 141.551 835.121 143.654C839.002 146.33 841.076 148.386 842.027 150.499C842.775 152.16 843.241 153.651 843.063 153.812C842.884 153.974 841.253 154.856 839.438 155.772L836.139 157.439L834.153 152.873C831.931 147.763 830.024 145.708 826.667 144.803C824.976 144.347 824.387 143.701 824.387 142.301C824.387 141.018 823.559 139.928 821.8 138.896C819.239 137.393 819.188 137.394 816.462 139.082C813.733 140.771 813.702 140.772 812.864 139.204C812.399 138.334 812.019 137.072 812.019 136.399C812.019 135.726 811.348 134.816 810.529 134.376C809.31 133.723 808.54 134.118 806.299 136.546C804.793 138.179 802.863 139.913 802.01 140.398C800.688 141.152 800.617 141.47 801.529 142.571C802.117 143.28 804.146 144.727 806.038 145.787C809.047 147.472 809.623 147.567 810.638 146.551C811.603 145.584 812.388 145.549 815.3 146.341L818.801 147.293L816.85 148.599C813.231 151.023 812.089 152.295 811.573 154.482C811.149 156.277 811.402 156.817 813.01 157.551C814.084 158.041 815.716 159.996 816.637 161.895C817.558 163.794 819.398 165.991 820.726 166.777C823.646 168.505 824.493 170.341 822.806 171.286C821.234 172.168 821.985 173.485 824.06 173.485C826.545 173.485 826.559 174.97 824.157 183.54C821.249 193.92 818.623 197.383 811.752 199.901C809.047 200.892 805.756 201.763 804.439 201.836C801.379 202.006 799.006 203.304 796.935 205.941L795.292 208.034L794.525 206.014C793.525 203.38 791.232 202.717 787.941 204.112C784.925 205.39 782.937 207.429 782.135 210.064C781.417 212.423 783.958 216.572 788.166 219.91C791.62 222.651 795.495 229.528 796.406 234.532C797.197 238.884 795.795 241.741 792.032 243.44C790.318 244.215 788.714 245.484 788.468 246.262C787.876 248.129 784.333 250.454 783.684 249.401C783.413 248.963 783.402 247.938 783.66 247.125C783.918 246.312 783.905 245.062 783.632 244.349C783.239 243.323 782.803 243.23 781.543 243.906C780.231 244.609 779.725 244.431 778.665 242.892C776.061 239.11 768.514 233.032 766.421 233.032C765.684 233.032 765.4 233.92 765.526 235.829C765.627 237.368 765.315 240.368 764.831 242.496C764.043 245.962 764.123 246.598 765.609 248.61C766.52 249.845 767.493 251.76 767.769 252.865C768.051 253.987 770.358 256.549 772.997 258.67C777.395 262.203 777.859 262.901 779.71 268.771C780.804 272.239 781.699 275.418 781.699 275.835C781.699 277.191 780.032 276.641 776.553 274.139C772.957 271.552 770.661 267.459 768.745 260.225C767.914 257.084 767.002 255.738 764.414 253.831C761.241 251.492 761.145 251.288 761.401 247.419C761.546 245.221 761.906 242.105 762.2 240.496C762.614 238.229 762.272 236.605 760.682 233.302C759.553 230.955 758.218 227.351 757.716 225.293C756.593 220.695 755.007 219.925 752.202 222.616C751.043 223.729 749.87 224.639 749.597 224.639C748.327 224.639 746.582 221.931 747 220.61C747.76 218.211 743.086 209.848 740.35 208.713C738.854 208.092 737.485 206.586 736.57 204.551C734.978 201.017 733.194 199.664 731.41 200.642C730.763 200.997 728.174 201.71 725.655 202.227C721.038 203.176 719.382 204.577 720.014 206.997C720.247 207.889 719.439 208.75 717.502 209.675C715.931 210.426 714.239 211.934 713.742 213.028C713.244 214.122 712.149 215.236 711.307 215.504C710.466 215.771 709.168 216.994 708.422 218.222C707.677 219.449 705.458 221.693 703.491 223.207C700.798 225.28 699.958 226.44 700.091 227.898C700.874 236.421 699.673 243.553 696.744 247.788C693.886 251.918 693.685 252.034 691.267 250.93C689.936 250.323 689.117 249.136 688.778 247.325C688.5 245.841 686.893 241.657 685.207 238.03C675.004 216.079 673.496 211.89 674.365 207.926C674.952 205.248 673.543 201.206 672.182 201.664C671.636 201.847 671.18 202.506 671.168 203.127C671.1 206.776 667.009 207.336 663.813 204.134L661.695 202.013L663.517 201.338C665.567 200.578 665.378 198.53 663.293 198.905C662.552 199.039 660.857 198.229 659.525 197.107C658.193 195.984 656.796 195.066 656.421 195.066C656.045 195.066 655.508 194.342 655.228 193.458C654.493 191.137 650.26 189.118 648.139 190.076C646.23 190.938 628.91 190.758 626.011 189.846C624.967 189.517 623.036 188.014 621.719 186.504C619.34 183.777 619.303 183.766 615.735 184.729C612.354 185.642 611.862 185.556 607.308 183.253C603.372 181.263 602.193 180.19 600.978 177.491C599.428 174.047 595.985 171.554 593.892 172.358C593.233 172.612 592.463 173.871 592.181 175.156C591.776 177.002 592.189 178.202 594.145 180.867C595.507 182.722 596.991 185.616 597.443 187.296C598.414 190.907 600.33 191.98 601.918 189.804C602.877 188.491 603.136 188.445 603.785 189.475C604.199 190.132 604.423 191.029 604.282 191.469C603.838 192.851 608.442 195.124 610.591 194.584C611.676 194.311 613.996 192.459 615.746 190.468C618.502 187.331 619.465 187.119 618.993 189.753C618.676 191.526 620.069 193.605 622.374 194.798C625.935 196.642 630.895 200.75 630.895 201.854C630.895 202.363 629.962 203.652 628.823 204.718C627.683 205.783 626.042 208.038 625.177 209.729C623.075 213.836 616.982 219.844 614.918 219.844C612.534 219.844 608.986 221.861 607.574 224.02C606.905 225.043 605.146 226.485 603.666 227.226C596.082 231.018 586.951 234.863 584.381 235.346C581.634 235.863 581.411 235.738 579.956 232.862C579.113 231.197 578.156 227.857 577.831 225.439C577.407 222.294 576.585 220.295 574.943 218.417C573.681 216.973 572.648 215.445 572.648 215.021C572.648 214.597 571.208 212.764 569.448 210.948C567.257 208.685 565.84 206.23 564.953 203.154C564.24 200.684 562.789 197.583 561.729 196.265C554.406 187.155 552.238 183.943 551.146 180.589C549.699 176.143 548.476 175.426 547.911 178.691L547.51 181.009L544.811 177.595C540.652 172.334 540.128 174.726 544.032 181.148C545.88 184.187 548.826 189.551 550.578 193.068C552.33 196.584 554.602 200.575 555.626 201.935C556.68 203.336 557.488 205.525 557.488 206.983C557.488 209.995 558.385 211.875 561.909 216.247C563.326 218.005 564.726 220.573 565.02 221.952C565.397 223.721 566.937 225.571 570.248 228.231C575.28 232.274 578.541 236.494 579.35 240.011C579.654 241.332 580.805 242.688 582.266 243.445C584.491 244.598 585.274 244.566 592.306 243.04C596.501 242.129 600.945 240.86 602.181 240.22L604.429 239.056L604.963 242.219C605.447 245.094 604.926 246.479 599.245 257.392C593.138 269.127 592.852 269.514 586.78 274.317C583.361 277.02 579.784 280.33 578.83 281.672C577.877 283.013 574.825 286.637 572.05 289.724C563.949 298.734 562.848 306.658 568.22 317.279C569.585 319.977 570.118 322.019 569.795 323.31C569.526 324.383 569.698 327.095 570.178 329.336C570.933 332.864 570.848 333.808 569.54 336.374C567.654 340.077 566.153 341.408 560.879 344.055C558.575 345.212 556.69 346.5 556.69 346.917C556.69 347.335 555.074 349.499 553.099 351.726C551.125 353.954 549.509 356.138 549.509 356.58C549.509 357.023 550.249 358.838 551.154 360.615C553.866 365.941 552.044 369.8 545.542 372.498C542.801 373.636 541.901 375.958 542.579 380.143C542.934 382.336 542.708 383.066 541.468 383.731C540.611 384.19 539.063 385.899 538.027 387.529C534.757 392.674 525.355 401.779 521.083 403.937C517.519 405.738 516.607 405.897 513.989 405.173C511.68 404.534 509.817 404.635 505.946 405.609C499.676 407.187 500.341 407.252 497.913 404.82ZM603.008 149.885C605.068 148.818 605.362 148.231 605.362 145.188C605.362 143.006 604.896 141.322 604.113 140.67C603.426 140.099 602.312 138.564 601.638 137.259C600.524 135.1 600.529 134.93 601.691 135.377C603.226 135.967 605.362 135.257 605.362 134.158C605.362 133.723 604.62 132.323 603.713 131.047C602.346 129.124 601.798 128.868 600.521 129.553C599.488 130.107 598.979 130.112 598.979 129.568C598.979 129.122 597.555 128.029 595.814 127.14C591.962 125.171 590.591 122.99 591.793 120.741C592.702 119.039 595.951 117.847 597.338 118.706C599.208 119.864 599.759 118.157 598.216 115.986C594.474 110.721 589.263 111.067 582.801 117.011C578.631 120.846 578.269 121.865 580.627 123.13C581.505 123.6 582.223 124.52 582.223 125.174C582.223 125.828 583.642 127.905 585.377 129.79C589.372 134.132 590.105 136.116 589.61 141.254L589.212 145.391L594.694 148.209C597.709 149.758 600.283 151.044 600.415 151.065C600.546 151.087 601.713 150.556 603.008 149.885ZM581.026 373.151C578.773 371.871 578.453 371.196 577.865 366.478C577.394 362.708 577.591 361.888 579.842 358.223C582.13 354.498 582.295 353.78 581.79 349.734C581.062 343.891 582.302 340.821 585.692 340.076C588.885 339.374 595.796 333.263 597.452 329.676L598.717 326.935L599.596 328.869C601.809 333.733 601.584 335.871 597.734 346.541C595.674 352.25 593.465 359.079 592.823 361.717C590.772 370.159 589.606 372.194 586.245 373.203C582.667 374.276 583.013 374.28 581.026 373.151ZM974.074 359.255C971.528 356.464 970.004 354.07 970.004 352.861C970.004 350.179 970.434 350.413 972.736 354.348C973.837 356.23 975.827 358.815 977.159 360.093C978.49 361.371 979.579 362.708 979.579 363.066C979.579 364.603 977.88 363.427 974.074 359.255ZM618.129 358.12C618.129 357.681 618.488 357.321 618.927 357.321C619.365 357.321 619.724 357.681 619.724 358.12C619.724 358.56 619.365 358.92 618.927 358.92C618.488 358.92 618.129 358.56 618.129 358.12ZM1038.31 356.662C1038.03 356.206 1038.19 355.592 1038.66 355.298C1039.85 354.564 1040.27 355.148 1039.48 356.43C1039.05 357.118 1038.64 357.199 1038.31 356.662ZM623.714 355.37C623.714 355.176 624.073 354.795 624.512 354.524C624.951 354.252 625.31 354.41 625.31 354.876C625.31 355.342 624.951 355.722 624.512 355.722C624.073 355.722 623.714 355.564 623.714 355.37ZM1017.56 347.258C1016.78 345.229 1017.77 344.518 1019.97 345.522C1021.87 346.388 1021.91 346.521 1020.59 347.49C1018.74 348.845 1018.15 348.8 1017.56 347.258ZM1022.62 343.703C1021.06 342.738 1022.14 341.967 1024.62 342.274C1026.56 342.515 1026.61 342.603 1025.22 343.46C1024.33 344.008 1023.27 344.107 1022.62 343.703ZM985.364 340.77C983.725 337.236 984.299 335.878 985.994 339.28C987.757 342.82 987.788 342.936 986.96 342.928C986.63 342.924 985.912 341.953 985.364 340.77ZM988.419 340.203C988.384 339.36 988.573 338.888 988.838 339.154C989.103 339.419 989.131 340.109 988.901 340.686C988.646 341.323 988.457 341.134 988.419 340.203ZM1053.38 332.529C1052.65 331.345 1053.34 330.741 1055.04 331.074C1056.29 331.317 1056.3 331.447 1055.18 332.382C1054.28 333.127 1053.77 333.169 1053.38 332.529ZM581.824 328.547C581.553 328.107 581.711 327.747 582.176 327.747C582.641 327.747 583.021 328.107 583.021 328.547C583.021 328.986 582.863 329.346 582.669 329.346C582.476 329.346 582.095 328.986 581.824 328.547ZM932.104 321.037C927.054 319.442 924.765 317.961 922.777 315.002C920.507 311.622 916.353 309.063 914.231 309.738C913.373 310.011 911.929 311.494 911.022 313.033C909.478 315.654 909.182 315.798 906.376 315.299C904.728 315.005 902.425 313.875 901.26 312.786C899.778 311.402 898.643 310.965 897.486 311.333C896.576 311.622 895.257 311.537 894.556 311.144C893.459 310.529 893.567 310.241 895.321 309.09C897.353 307.756 897.356 307.738 895.993 304.874C894.898 302.574 893.387 301.375 888.447 298.887C885.05 297.176 881.209 295.776 879.912 295.776C876.945 295.776 875.72 293.036 877.955 291.399C879.285 290.425 879.09 290.183 875.622 288.495C871.938 286.702 871.886 286.627 873.645 285.648C874.639 285.095 876.24 284.63 877.203 284.614C879.072 284.584 881.437 287.286 881.437 289.452C881.437 290.174 882.213 291.753 883.161 292.96C884.86 295.124 884.904 295.133 886.153 293.571C886.85 292.699 889.076 291.035 891.099 289.874L894.778 287.762L899.876 290.066C902.681 291.334 906.661 292.979 908.722 293.723C910.783 294.467 914.906 296.679 917.884 298.638C923.57 302.38 926.041 305.534 924.624 307.244C923.469 308.638 928.006 314.988 932.702 318.551C937.864 322.467 937.777 322.829 932.104 321.037ZM966.828 320.973C966.199 320.213 966.139 319.755 966.668 319.755C967.632 319.755 968.756 321.271 968.203 321.825C968.002 322.026 967.384 321.643 966.828 320.973ZM832.763 317.719C831.608 317.078 831.273 316.607 831.967 316.598C833.392 316.579 835.671 317.909 835.134 318.447C834.927 318.654 833.86 318.327 832.763 317.719ZM846.254 316.663C848.517 313.48 852.058 312.117 855.332 313.171C857.717 313.938 857.755 314.002 855.861 314.078C854.74 314.123 852.124 315.239 850.048 316.557C845.311 319.567 844.167 319.599 846.254 316.663ZM962.025 317.756C960.947 316.455 961.205 316.292 963.157 317.043C963.851 317.309 964.419 317.849 964.419 318.241C964.419 319.347 963.126 319.085 962.025 317.756ZM965.762 317.051C965.462 316.268 965.239 315.027 965.267 314.294C965.301 313.411 965.578 313.612 966.088 314.89C966.511 315.952 966.734 317.192 966.583 317.647C966.431 318.102 966.062 317.834 965.762 317.051ZM1027.45 317.803C1027.45 317.61 1027.81 317.229 1028.25 316.957C1028.69 316.685 1029.05 316.844 1029.05 317.309C1029.05 317.775 1028.69 318.156 1028.25 318.156C1027.81 318.156 1027.45 317.997 1027.45 317.803ZM823.384 314.446C822.833 314.214 822.585 313.694 822.833 313.292C823.443 312.304 828.556 312.359 829.174 313.36C829.445 313.8 829.197 314.164 828.623 314.17C828.048 314.177 826.86 314.336 825.982 314.526C825.105 314.715 823.936 314.679 823.384 314.446ZM835.23 313.846C833.78 312.096 835.451 311.564 839.21 312.578C842.997 313.599 842.984 313.759 839.059 314.469C837.021 314.837 835.9 314.655 835.23 313.846ZM955.029 313.36C954.477 312.475 954.379 311.762 954.809 311.762C955.236 311.762 955.97 312.481 956.44 313.36C956.909 314.239 957.008 314.959 956.66 314.959C956.311 314.959 955.577 314.239 955.029 313.36ZM960.026 312.556C957.893 310.195 959.035 309.823 961.23 312.164C962.259 313.262 962.735 314.16 962.288 314.16C961.84 314.16 960.823 313.438 960.026 312.556ZM810.423 312.417C807.571 312.021 803.549 311.142 801.486 310.464C799.423 309.786 796.992 309.467 796.084 309.756C794.257 310.337 786.486 308.049 786.486 306.93C786.486 304.375 793.639 304.181 797.44 306.633C798.859 307.548 799.978 307.609 802.978 306.936C806.302 306.189 806.995 306.281 808.947 307.728C810.163 308.628 811.518 309.364 811.96 309.364C813.537 309.364 818.326 312.038 817.922 312.693C817.696 313.06 817.083 313.31 816.56 313.249C816.037 313.188 813.276 312.814 810.423 312.417ZM953.647 308.564C952.853 307.685 952.562 306.966 953.001 306.966C953.44 306.966 954.448 307.685 955.243 308.564C956.037 309.444 956.328 310.163 955.889 310.163C955.45 310.163 954.441 309.444 953.647 308.564ZM948.615 307.552C948.162 307.005 947.56 305.48 947.278 304.164C946.823 302.044 946.874 301.953 947.724 303.369C948.252 304.248 949.196 305.561 949.821 306.287C950.484 307.056 950.642 307.803 950.199 308.077C949.781 308.335 949.068 308.099 948.615 307.552ZM931.717 305.011L929.735 303.912L932.808 303.334C934.498 303.016 937.096 301.688 938.58 300.382C940.201 298.957 941.275 298.44 941.267 299.09C941.249 300.715 940.268 301.968 937.285 304.172C934.17 306.474 934.317 306.452 931.717 305.011ZM782.042 301.899C779.111 300.226 773.824 293.753 772.102 289.73C771.174 287.56 769.046 283.986 767.374 281.788C765.701 279.59 763.782 276.713 763.108 275.394C762.434 274.075 760.387 271.557 758.56 269.799C754.706 266.092 752.336 262.196 753.951 262.223C756.045 262.26 761.434 265.261 763.746 267.679C770.123 274.347 771.43 275.534 774.44 277.392C777.345 279.185 778.721 281.051 778.859 283.387C778.885 283.827 779.711 285.085 780.695 286.184C781.679 287.283 783.535 289.35 784.82 290.778C786.105 292.205 787.388 294.432 787.672 295.726C788.601 299.963 785.195 303.698 782.042 301.899ZM621.32 301.371C621.32 300.931 621.679 300.572 622.118 300.572C622.557 300.572 622.916 300.931 622.916 301.371C622.916 301.811 622.557 302.17 622.118 302.17C621.679 302.17 621.32 301.811 621.32 301.371ZM832.361 301.364C832.088 300.92 832.085 299.858 832.353 299.002C832.625 298.146 832.295 296.605 831.62 295.572C830.508 293.874 830.519 293.518 831.732 291.782C832.469 290.729 833.337 287.901 833.663 285.498C834.065 282.532 834.858 280.524 836.131 279.248C837.873 277.504 838.31 277.427 842.225 278.17C845.586 278.809 846.909 278.73 848.738 277.782C851.802 276.195 852.026 276.266 851.008 278.503C849.715 281.347 847.131 282.255 844.406 280.825C839.54 278.271 833.084 282.067 836.49 285.479C837.742 286.733 838.435 286.847 840.754 286.181C844.729 285.039 846.296 285.248 843.827 286.592C841.033 288.113 840.503 289.8 841.943 292.59C842.598 293.859 843.134 295.827 843.134 296.963C843.134 298.782 842.943 298.927 841.537 298.173C840.659 297.702 839.391 296.002 838.721 294.394C837.511 291.494 837.49 291.483 835.942 293.034C834.584 294.395 834.492 294.999 835.235 297.695C835.907 300.131 835.862 300.937 835.024 301.469C833.614 302.364 832.959 302.338 832.358 301.364H832.361ZM941.834 297.101C941.082 295.951 939.359 294.436 938.006 293.735C936.653 293.034 935.725 292.281 935.945 292.061C937.185 290.818 944.109 296.463 943.519 298.237C943.338 298.781 942.614 298.294 941.834 297.101ZM816.534 294.44C815.33 293.809 813.709 293.494 812.93 293.742C810.945 294.373 803.06 292.765 802.279 291.57C801.657 290.619 799.83 284.763 798.852 280.589C798.583 279.442 798.852 277.953 799.48 277.091C800.393 275.841 800.865 275.746 802.311 276.522C803.838 277.34 804.162 277.2 804.999 275.36C805.522 274.209 807.264 272.596 808.871 271.775C810.572 270.906 812.206 269.279 812.785 267.878C813.453 266.262 814.673 265.177 816.499 264.573C817.994 264.079 820.154 262.445 821.299 260.942C822.443 259.439 823.805 258.209 824.325 258.209C824.845 258.209 826.419 259.397 827.823 260.848L830.376 263.486L828.33 266.243C826.005 269.375 826.127 272.068 828.761 275.774L830.356 278.018L828.369 279.322C827.276 280.039 826.383 281.068 826.385 281.607C826.393 283.438 821.279 293.99 819.997 294.792C819.105 295.35 818.066 295.244 816.534 294.44ZM862.886 294.426C861.234 293.993 861.005 292.579 862.586 292.579C863.19 292.579 864.878 292.818 866.339 293.111C868.588 293.561 868.756 293.736 867.436 294.254C865.704 294.933 864.933 294.962 862.886 294.426ZM989.952 284.233C989.952 284.04 990.311 283.659 990.749 283.387C991.188 283.115 991.547 283.274 991.547 283.739C991.547 284.205 991.188 284.586 990.749 284.586C990.311 284.586 989.952 284.427 989.952 284.233ZM860.09 282.066C859.452 281.427 859.415 280.686 859.968 279.651C860.406 278.83 860.552 277.814 860.292 277.392C859.573 276.226 861.375 273.396 862.838 273.396C864.011 273.396 864.006 273.533 862.786 274.883C861.732 276.05 861.615 276.822 862.241 278.473C863.508 281.809 862.131 284.11 860.09 282.066ZM459.346 279.438C459.346 279.244 459.705 278.863 460.144 278.591C460.583 278.32 460.942 278.478 460.942 278.944C460.942 279.409 460.583 279.79 460.144 279.79C459.705 279.79 459.346 279.632 459.346 279.438ZM1012.69 277.392C1012.42 276.953 1012.58 276.593 1013.04 276.593C1013.51 276.593 1013.89 276.953 1013.89 277.392C1013.89 277.832 1013.73 278.192 1013.54 278.192C1013.34 278.192 1012.96 277.832 1012.69 277.392ZM464.133 269.846C464.133 269.652 464.492 269.271 464.931 269C465.37 268.728 465.729 268.887 465.729 269.352C465.729 269.818 465.37 270.199 464.931 270.199C464.492 270.199 464.133 270.04 464.133 269.846ZM847.933 257.829C846.411 254.272 846.208 254.113 843.866 254.628C841.531 255.141 841.45 255.079 842.325 253.441C843.049 252.085 843.721 251.816 845.437 252.194C847.092 252.558 848.149 252.19 849.77 250.685C850.949 249.59 851.922 248.048 851.932 247.257C851.957 245.24 854.92 252.006 855.596 255.623C856.109 258.369 856.045 258.519 854.798 257.484C852.947 255.948 851.166 257.541 852.684 259.374C853.29 260.106 853.368 260.607 852.875 260.607C852.419 260.607 851.48 260.824 850.79 261.09C849.864 261.446 849.115 260.591 847.933 257.829ZM702.452 259.241C701.56 257.79 701.053 251.276 701.697 249.548C702.381 247.715 702.432 247.737 704.465 250.747C706.901 254.354 707.681 256.667 706.877 257.902C706.108 259.084 702.944 260.041 702.452 259.241ZM880.639 255.107C880.639 254.667 880.998 254.085 881.437 253.813C881.876 253.542 882.235 253.679 882.235 254.119C882.235 254.558 881.876 255.14 881.437 255.412C880.998 255.684 880.639 255.546 880.639 255.107ZM1005.91 255.012C1005.91 254.573 1006.07 254.213 1006.26 254.213C1006.46 254.213 1006.84 254.573 1007.11 255.012C1007.38 255.452 1007.22 255.811 1006.75 255.811C1006.29 255.811 1005.91 255.452 1005.91 255.012ZM824.786 250.394C824.786 250.053 826.385 247.985 828.34 245.799C831.205 242.595 831.902 242.143 831.931 243.466C831.951 244.369 830.751 246.438 829.266 248.062C826.747 250.817 824.786 251.838 824.786 250.394ZM842.068 248.262C841.777 247.503 841.836 246.351 842.199 245.701C842.761 244.695 842.995 244.685 843.782 245.636C844.487 246.487 844.456 247.093 843.651 248.196C842.662 249.551 842.563 249.555 842.068 248.262ZM231.041 245.147C231.53 244.557 231.693 243.838 231.404 243.549C231.116 243.26 231.624 243.023 232.534 243.023C233.795 243.023 234.089 243.403 233.77 244.621C233.528 245.55 232.682 246.22 231.753 246.22C230.504 246.22 230.348 245.984 231.041 245.147ZM847.422 244.936C847.124 244.103 846.735 243.153 846.558 242.823C846.38 242.493 846.573 242.224 846.987 242.224C847.783 242.224 848.904 245.506 848.311 246.1C848.119 246.292 847.719 245.768 847.422 244.936ZM839.336 242.85C838.215 241.498 839.307 239.572 840.983 239.947C842.034 240.182 842.073 240.514 841.23 242.078C840.416 243.587 840.065 243.73 839.336 242.85ZM848.769 240.103C847.854 238.937 847.238 237.85 847.4 237.687C848.049 237.037 850.293 238.468 851.486 240.293C853.321 243.098 850.994 242.936 848.769 240.103ZM835.652 237.009C834.942 236.297 834.36 235.301 834.36 234.795C834.36 234.289 835.148 234.665 836.111 235.63C837.074 236.594 837.656 237.59 837.403 237.843C837.151 238.096 836.363 237.721 835.652 237.009ZM209.336 236.895C209.044 236.602 208.804 235.991 208.804 235.536C208.804 235.035 209.176 235.083 209.748 235.656C210.268 236.176 210.507 236.788 210.28 237.015C210.054 237.242 209.629 237.188 209.336 236.895ZM204.815 235.829C204.815 235.39 204.973 235.03 205.166 235.03C205.36 235.03 205.74 235.39 206.011 235.829C206.283 236.269 206.124 236.629 205.66 236.629C205.195 236.629 204.815 236.269 204.815 235.829ZM242.316 234.231C242.316 233.791 242.474 233.431 242.668 233.431C242.861 233.431 243.242 233.791 243.513 234.231C243.784 234.67 243.626 235.03 243.161 235.03C242.696 235.03 242.316 234.67 242.316 234.231ZM843.678 234.109C842.878 233.657 841.362 233.504 840.308 233.769C838.763 234.157 837.698 233.535 834.806 230.554C830.72 226.343 829.926 224.567 831.125 222.324C831.588 221.457 831.967 219.667 831.967 218.345C831.967 214.006 834.868 214.181 836.994 218.649C838.172 221.124 838.18 221.655 837.073 224.309C835.88 227.167 835.904 227.295 838.03 229.518C839.566 231.124 840.719 231.669 841.932 231.364C842.958 231.106 844.065 231.426 844.668 232.154C846.105 233.889 845.478 235.126 843.678 234.109ZM237.529 229.083C237.529 228.889 237.888 228.508 238.327 228.236C238.765 227.964 239.124 228.123 239.124 228.589C239.124 229.054 238.765 229.435 238.327 229.435C237.888 229.435 237.529 229.276 237.529 229.083ZM362.8 226.238C362.8 225.798 363.159 225.439 363.597 225.439C364.036 225.439 364.395 225.798 364.395 226.238C364.395 226.677 364.036 227.037 363.597 227.037C363.159 227.037 362.8 226.677 362.8 226.238ZM235.135 223.135C235.135 222.695 235.494 222.113 235.933 221.842C236.372 221.57 236.731 221.707 236.731 222.147C236.731 222.587 236.372 223.169 235.933 223.44C235.494 223.712 235.135 223.575 235.135 223.135ZM228.358 219.853C228.079 219.4 228.399 219.266 229.109 219.539C230.492 220.07 230.744 220.643 229.597 220.643C229.184 220.643 228.627 220.287 228.358 219.853ZM355.219 219.844C354.948 219.404 355.107 219.044 355.571 219.044C356.036 219.044 356.416 219.404 356.416 219.844C356.416 220.283 356.258 220.643 356.064 220.643C355.871 220.643 355.491 220.283 355.219 219.844ZM231.544 218.245C231.273 217.805 231.432 217.446 231.896 217.446C232.361 217.446 232.741 217.805 232.741 218.245C232.741 218.685 232.583 219.044 232.389 219.044C232.196 219.044 231.816 218.685 231.544 218.245ZM235.135 218.245C235.135 217.805 235.293 217.446 235.487 217.446C235.68 217.446 236.061 217.805 236.332 218.245C236.603 218.685 236.445 219.044 235.98 219.044C235.515 219.044 235.135 218.685 235.135 218.245ZM180.279 216.117C179.731 215.895 179.282 215.384 179.282 214.981C179.282 213.829 182.804 214.126 184.515 215.422C185.986 216.537 185.944 216.594 183.67 216.558C182.354 216.537 180.828 216.339 180.279 216.117ZM200.469 215.664C199.754 215.262 198.173 215.153 196.956 215.421C195.74 215.689 193.868 215.557 192.798 215.128C191.076 214.438 191.229 214.357 194.115 214.424C198.357 214.524 199.49 213.831 198.405 211.802C197.636 210.362 197.867 210.252 201.674 210.252C205.356 210.252 210.668 211.944 211.568 213.403C212.167 214.373 201.898 216.465 200.469 215.664ZM215.775 216.169C214.829 215.222 216.004 214.249 218.094 214.249C219.348 214.249 219.984 214.625 219.779 215.248C219.411 216.367 216.614 217.01 215.775 216.169ZM793.039 214.898C790.926 212.782 793.017 210.252 796.88 210.252C798.592 210.252 798.594 210.266 797.125 212.786C795.412 215.723 794.39 216.251 793.039 214.898ZM222.369 214.734C222.369 214.561 222.907 214.213 223.565 213.959C224.224 213.706 224.762 213.848 224.762 214.274C224.762 214.699 224.224 215.048 223.565 215.048C222.907 215.048 222.369 214.906 222.369 214.734ZM187.877 209.004C187.631 208.758 185.946 208.535 184.134 208.51C181.634 208.476 181.034 208.229 181.647 207.489C182.24 206.773 181.389 205.821 178.455 203.917C172.704 200.184 169.492 199.454 165.629 201.003C162.005 202.455 161.728 202.496 161.728 201.581C161.728 199.908 168.078 198.069 172.651 198.417C177.024 198.75 179.472 199.682 188.059 204.284C195.116 208.066 195.124 208.073 192.846 208.724C190.259 209.463 188.437 209.565 187.877 209.004ZM193.644 202.259C195.191 201.258 196.038 201.258 196.038 202.259C196.038 202.699 195.23 203.053 194.242 203.046C192.791 203.036 192.676 202.886 193.644 202.259ZM829.094 200.842C828.611 200.522 827.781 199.433 827.249 198.422C826.447 196.897 826.53 196.157 827.735 194.09C829.596 190.898 830.853 190.5 831.457 192.911C832.093 195.447 830.256 201.61 829.094 200.842ZM198.883 199.776C199.415 198.913 202.421 198.815 202.42 199.662C202.42 199.991 201.525 200.313 200.431 200.376C199.337 200.439 198.64 200.169 198.883 199.776ZM183.104 192.073C181.828 190.606 182.014 188.671 183.431 188.671C183.884 188.671 184.072 189.373 183.848 190.232C183.624 191.09 183.851 191.94 184.353 192.12C184.855 192.301 185.054 192.68 184.796 192.963C184.537 193.246 183.776 192.845 183.104 192.073ZM187.739 185.794C187.456 185.053 187.403 184.266 187.622 184.046C187.842 183.827 188.253 184.253 188.537 184.995C188.821 185.736 188.874 186.522 188.655 186.742C188.435 186.962 188.023 186.535 187.739 185.794ZM182.739 185.075C182.739 184.415 183.423 183.876 184.259 183.876C185.61 183.876 185.646 184.009 184.582 185.075C183.924 185.734 183.24 186.273 183.062 186.273C182.885 186.273 182.739 185.734 182.739 185.075ZM851.914 167.552C851.914 166.926 851.043 165.376 849.977 164.108C847.449 161.097 848.344 159.088 851.339 161.054C853.492 162.467 854.617 165.354 853.823 167.427C853.221 168.999 851.914 169.084 851.914 167.552ZM232.741 162.742C232.741 162.548 233.1 162.167 233.539 161.895C233.978 161.624 234.337 161.782 234.337 162.248C234.337 162.713 233.978 163.094 233.539 163.094C233.1 163.094 232.741 162.936 232.741 162.742ZM856.361 161.759C855.844 160.409 857.065 159.132 858.896 159.11C860.164 159.094 860.188 160.881 858.936 162.135C857.635 163.438 856.967 163.341 856.361 161.759ZM863.651 158.842C862.102 156.473 859.914 156.148 854.904 157.542C852.867 158.109 851.464 158.115 850.515 157.562C849.749 157.114 849.543 156.737 850.058 156.724C850.573 156.711 852.076 155.788 853.398 154.674C855.104 153.236 856.354 152.786 857.701 153.125C859.129 153.484 860.671 152.797 863.913 150.356C870.225 145.605 870.796 144.107 868.228 139.03C865.763 134.157 866.45 132.589 870.103 134.75C872.761 136.323 875.266 140.829 874.538 142.728C874.276 143.412 874.667 145.558 875.406 147.497C876.452 150.24 876.551 151.394 875.853 152.7C874.828 154.619 871.976 155.901 868.734 155.901C866.917 155.901 866.374 156.368 865.78 158.442L865.052 160.983L863.651 158.842ZM540.413 156.113C539.46 155.16 539.967 154.302 541.483 154.302C542.335 154.302 543.253 153.942 543.525 153.503C544.266 152.3 545.531 152.542 545.052 153.794C544.559 155.079 541.104 156.806 540.413 156.113ZM513.204 154.73L510.811 153.633L514.002 153.579C517.977 153.511 520.906 154.258 520.329 155.192C519.687 156.233 515.951 155.99 513.204 154.73ZM480.972 146.757C477.778 145.12 477.628 144.915 479.295 144.478C481.292 143.955 485.711 144.606 485.621 145.41C485.59 145.685 485.32 146.505 485.022 147.233C484.532 148.429 484.144 148.384 480.972 146.757ZM464.979 138.11C464.288 136.125 464.343 135.366 465.24 134.467C466.862 132.842 468.123 133.984 468.123 137.079C468.123 140.734 466.121 141.391 464.979 138.11ZM446.269 138.774C446.835 137.296 449.262 137.046 448.774 138.516C448.591 139.066 447.845 139.631 447.114 139.773C446.189 139.953 445.933 139.651 446.269 138.774ZM863.175 129.651C861.714 127.596 861.674 127.217 862.753 125.675C863.812 124.159 863.808 123.705 862.717 121.591C860.922 118.114 861.174 117.904 864.287 120.282C865.826 121.458 868.862 122.948 871.035 123.595C875.524 124.93 876.608 125.979 874.267 126.723C873.383 127.004 872.66 127.756 872.66 128.394C872.66 129.263 872.109 129.413 870.465 128.992C866.256 127.913 865.059 128.177 865.329 130.124C865.66 132.509 865.123 132.391 863.175 129.651ZM466.261 130.59C465.336 129.663 465.684 128.114 466.926 127.636C467.791 127.304 468.123 127.724 468.123 129.149C468.123 131.068 467.342 131.672 466.261 130.59ZM858.112 113.738C857.435 112.969 855.803 110.181 854.486 107.542C853.169 104.904 849.686 100.058 846.747 96.7748C843.463 93.1064 841.795 90.674 842.419 90.4656C842.978 90.279 844.176 91.1148 845.081 92.3229C847.277 95.2512 849.98 97.794 854.245 100.943C857.781 103.553 859.53 105.969 857.248 105.092C854.617 104.081 855.274 106.481 858.679 110.321C860.663 112.559 862.287 114.559 862.287 114.764C862.287 115.736 859.203 114.978 858.112 113.738ZM274.232 112.339C274.232 111.68 274.58 111.14 275.005 111.14C275.43 111.14 275.571 111.68 275.319 112.339C275.066 112.999 274.718 113.538 274.546 113.538C274.373 113.538 274.232 112.999 274.232 112.339ZM270.063 109.76L267.09 109.448L272.684 103.9C275.76 100.848 278.68 98.3518 279.171 98.3518C279.69 98.3518 279.534 98.9391 278.801 99.7511C277.14 101.59 278.272 103.655 281.308 104.323C282.633 104.615 283.954 105.632 284.464 106.754C285.284 108.556 285.145 108.739 282.38 109.508C279.48 110.315 276.018 110.386 270.063 109.76ZM75.6386 104.026C72.8747 101.439 72.5664 100.35 74.3992 99.6453C76.0405 99.0144 79.0703 101.071 80.2187 103.596C81.4237 106.245 81.4023 106.345 79.6282 106.345C78.7969 106.345 77.0016 105.301 75.6386 104.026ZM427.031 99.9649C427.908 99.5312 429.636 98.8117 430.869 98.366C433.586 97.3838 433.136 96.3378 429.699 95.6493C427.341 95.177 427.258 95.0568 428.607 94.0687C429.41 93.4805 429.833 92.6201 429.547 92.1567C429.255 91.6832 430.076 90.9479 431.42 90.4784C432.736 90.0188 433.813 89.2879 433.813 88.854C433.813 87.0078 432.15 83.9022 431.226 84.023C429.096 84.3013 428.109 83.925 428.452 82.9655C428.649 82.416 428.487 81.337 428.092 80.5677C427.065 78.5673 429.425 74.4303 431.619 74.3854C431.948 74.3794 432.127 74.8143 432.018 75.3533C431.908 75.8924 432.661 76.4615 433.691 76.618L435.564 76.9026L433.774 78.8106L431.985 80.7186L434.002 81.4868C436.167 82.3114 438.254 84.9978 440.379 89.696C441.397 91.9469 442.066 92.5353 443.255 92.224C445.693 91.5853 445.982 93.2405 443.695 94.742C442.145 95.7593 441.851 96.3324 442.529 97.0124C443.208 97.6924 441.87 98.1487 437.229 98.8197C433.814 99.3133 429.764 99.9504 428.228 100.235C426.091 100.632 425.81 100.568 427.031 99.9649ZM413.575 95.5496C413.302 94.8371 413.613 93.2183 414.267 91.9523C415.017 90.4996 415.162 89.4688 414.66 89.1582C413.278 88.3022 413.796 87.2097 415.827 86.699C416.906 86.4277 418.207 85.7014 418.718 85.0852C419.781 83.8021 424.696 83.566 425.434 84.7626C425.705 85.2014 425.367 86.3605 424.683 87.3383C424 88.3161 423.44 90.0725 423.44 91.2414C423.44 93.0238 422.893 93.5568 420.049 94.5458C418.184 95.1943 416.076 95.9769 415.365 96.285C414.531 96.6463 413.895 96.3851 413.575 95.5496ZM428.228 87.6086C428.228 87.4148 428.587 87.0339 429.026 86.7622C429.464 86.4905 429.823 86.6491 429.823 87.1146C429.823 87.5802 429.464 87.9611 429.026 87.9611C428.587 87.9611 428.228 87.8025 428.228 87.6086ZM74.1179 83.7575C73.3363 82.814 73.386 82.3744 74.3668 81.559C75.9884 80.2109 76.7927 81.1253 75.8489 83.2441C75.198 84.7052 74.9613 84.7754 74.1179 83.7575ZM72.8701 77.7463C72.6007 77.3095 72.9148 76.5077 73.5683 75.9645C74.8656 74.8859 75.1365 75.7318 74.046 77.4559C73.6293 78.1146 73.1677 78.2286 72.8701 77.7463ZM21.2968 77.2364C21.2968 76.6742 23.7162 75.6908 27.1485 74.8579C28.4496 74.5421 29.2189 74.6182 28.9604 75.0372C28.7133 75.4377 27.5163 75.9664 26.3003 76.2122C25.0844 76.458 23.4611 76.9026 22.6932 77.2003C21.9252 77.4979 21.2968 77.5141 21.2968 77.2364ZM495.451 68.2488C493.979 67.6538 494.239 66.7367 495.916 66.6101C496.721 66.5494 497.379 67.0124 497.379 67.639C497.379 68.829 497.103 68.9165 495.451 68.2488ZM320.112 64.1636C315.062 61.4053 312.649 57.1676 314.112 53.6293C314.804 51.9548 314.825 50.9018 314.191 49.7135C312.869 47.2404 314.593 44.3421 319.002 41.6248C321.096 40.3342 323.186 38.5717 323.648 37.7082C324.926 35.3159 323.787 31.2163 321.563 30.2011C320.437 29.6873 319.825 28.8748 320.074 28.2256C320.64 26.7469 317.983 21.6967 315.338 19.2224C313.39 17.4012 312.553 17.2199 305.885 17.1761C296.804 17.1166 295.113 16.6109 295.263 14.001C295.326 12.9169 295.566 12.0296 295.797 12.0293C296.027 12.029 299.259 11.6539 302.978 11.1957C307.726 10.6106 311.983 9.40403 317.275 7.14321C325.469 3.64288 326.093 3.57448 345.645 4.03482C351.818 4.18018 357.498 3.72249 364.794 2.49162C371.589 1.34537 376.589 0.913271 379.288 1.23896C381.582 1.51568 384.904 1.33316 386.779 0.827368C391.13 -0.346383 402.436 1.06553 406.883 3.33801C409.511 4.68149 410.902 4.85889 415.338 4.4165C420.13 3.93864 420.492 4.0015 419.052 5.06109C418.174 5.70683 415.481 6.49563 413.067 6.81399C407.83 7.50481 403.017 11.2443 404.293 13.6319C404.843 14.6618 404.449 15.5409 402.67 17.2482C401.377 18.4888 400.13 20.101 399.899 20.8308C399.343 22.5842 392.289 25.8474 388.792 25.969C384.907 26.1042 384.501 26.9314 387.505 28.589C388.924 29.3721 390.996 30.7063 392.109 31.554L394.132 33.0952L392.303 33.773C390.901 34.2927 389.763 33.9577 387.43 32.3379C384.263 30.1397 380.857 30.1287 382.674 32.3224C383.383 33.1779 383.212 33.5103 381.886 33.8578C378.921 34.6345 381.018 36.1705 384.288 35.617C386.369 35.2648 387.54 35.4504 388.191 36.236C388.965 37.1707 387.955 37.6035 382.144 38.8271C378.307 39.635 373.192 40.3256 370.779 40.3617C366.295 40.4289 363.063 41.7183 358.31 45.3373C356.76 46.5174 353.466 47.687 349.612 48.4257C341.555 49.9698 338.833 51.7555 333.979 58.6795C330.08 64.2409 327.729 66.3137 325.298 66.3333C324.64 66.3387 322.306 65.3623 320.112 64.1636ZM263.537 58.8178C261.823 57.7632 259.723 55.7962 258.87 54.4467C257.205 51.8122 255.67 51.4775 251.175 52.769C249.653 53.2062 247.945 53.2483 247.262 52.8655C244.899 51.541 249.167 50.2382 253.92 50.8331C257.535 51.2856 258.338 51.1566 258.76 50.0562C259.607 47.8453 263.483 46.2608 265.639 47.2445C266.966 47.8501 268.172 47.8332 269.866 47.1853C272.146 46.3136 272.178 46.2349 270.689 45.1395C269.837 44.5129 268.864 44.0003 268.528 44.0003C268.192 44.0003 266.977 42.3946 265.829 40.4321C264.681 38.4696 262.529 36.1133 261.047 35.1958C258.529 33.6367 258.195 33.6093 255.943 34.7762C253.973 35.7963 252.836 35.8677 249.72 35.1668C247.623 34.6951 244.694 34.5362 243.213 34.8138C240.642 35.2953 235.933 34.0352 235.933 32.866C235.933 30.7182 242.69 25.8979 246.705 25.1824L249.896 24.6135L247.615 27.0483C244.468 30.4071 245.651 31.9528 249.069 28.9471C250.518 27.6721 253.024 26.381 254.636 26.0779C257.1 25.6149 258.156 25.9168 261.25 27.9697C265.366 30.701 265.683 30.7742 268.005 29.5297C269.402 28.7802 269.921 28.9861 271.439 30.8932C272.489 32.2124 274.834 33.6488 277.121 34.3736C280.765 35.5287 281.014 35.78 281.014 38.2979C281.014 40.1861 281.558 41.3775 282.838 42.2944C288.192 46.1305 288.076 45.972 286.917 47.8305C285.328 50.3788 284.074 50.5635 280.558 48.7666C278.112 47.5166 277.043 47.3452 275.812 48.0053C274.305 48.8131 274.289 48.9857 275.502 51.3353C276.498 53.2636 276.588 54.2373 275.912 55.7245C275.078 57.5571 274.946 57.5855 272.682 56.413C268.233 54.1081 265.237 55.6248 269.387 58.0809C270.688 58.8504 271.571 59.7737 271.349 60.1327C270.576 61.3853 266.628 60.7209 263.537 58.8178ZM427.43 59.8528C427.43 59.4865 427.968 59.1867 428.627 59.1867C429.285 59.1867 429.823 59.4865 429.823 59.8528C429.823 60.2192 429.285 60.5189 428.627 60.5189C427.968 60.5189 427.43 60.2192 427.43 59.8528ZM233.452 55.5543C231.879 54.7258 230.657 54.6549 228.454 55.2642C224.709 56.3002 223.399 55.5421 225.3 53.4383C227.733 50.7452 229.383 50.2155 232.318 51.1857C235.62 52.2776 237.086 53.9006 236.195 55.479C235.627 56.4853 235.24 56.4959 233.452 55.5543ZM391.923 55.1903C390.606 54.3232 388.931 53.8033 388.199 54.0352C387.191 54.3545 386.968 54.0773 387.277 52.8925C387.752 51.0741 394.763 48.4495 397.132 49.203C397.959 49.4657 400.07 49.2497 401.825 48.723C404.58 47.8962 405.311 47.9587 407.173 49.1811L409.33 50.5969L407.409 52.0968C405.787 53.3628 402.779 54.4612 395.514 56.4408C394.855 56.6202 393.24 56.0575 391.923 55.1903ZM175.292 40.2696C174.195 40.0959 171.522 39.1558 169.353 38.1804L165.409 36.407L170.949 36.0074C173.996 35.7876 176.489 35.2481 176.489 34.8085C176.489 34.3689 174.335 33.8164 171.702 33.5808C168.225 33.2697 167.57 33.0508 169.308 32.7815C172.218 32.3306 172.428 31.0679 169.707 30.3794C167.747 29.8837 167.762 29.8534 170.518 28.6637C175.295 26.6019 180.383 26.207 184.891 27.548C188.593 28.6491 189.171 28.6444 190.916 27.4991C192.15 26.689 192.882 26.5535 192.946 27.1233C193.001 27.6135 193.09 28.4341 193.145 28.947C193.33 30.6786 194.922 30.4545 196.821 28.4295C198.579 26.5549 201.627 25.6568 201.62 27.0154C201.618 27.3451 200.909 28.7789 200.043 30.2016L198.468 32.7883L201.043 34.1339L203.618 35.4795L199.39 37.4125C195.575 39.1567 194.793 39.2565 191.373 38.4348C188.057 37.638 187.106 37.7291 183.765 39.1636C179.992 40.7839 179.196 40.8877 175.292 40.2696ZM207.293 39.7065C206.572 38.8366 206.87 38.4085 208.732 37.6357C210.029 37.0978 211.888 36.9185 212.885 37.2353C214.613 37.7848 214.573 37.8712 211.946 39.2726C208.595 41.0606 208.428 41.0762 207.293 39.7065ZM427.43 36.0074C428.977 35.0059 429.823 35.0059 429.823 36.0074C429.823 36.447 429.016 36.8012 428.028 36.7944C426.576 36.7846 426.462 36.6339 427.43 36.0074ZM573.845 33.7899C569.766 32.1758 569.849 32.264 571.036 30.8313C571.591 30.1613 571.732 29.6017 571.35 29.5877C570.967 29.5737 571.372 29.0187 572.249 28.3543C573.127 27.69 573.851 26.8922 573.858 26.5814C573.886 25.3992 577.135 22.2815 579.43 21.2338C580.747 20.633 584.158 19.9557 587.01 19.7289C589.863 19.502 593.684 19.0864 595.501 18.8053C597.435 18.5061 599.011 18.6284 599.303 19.1003C599.868 20.0173 598.789 20.407 592.596 21.5216C586.45 22.6275 582.757 24.351 580.324 27.2473C577.761 30.2985 577.675 32.225 580.029 33.8698L581.824 35.1243L579.43 35.0885C578.114 35.0689 575.6 34.4845 573.845 33.7899ZM155.947 31.4724C154.66 30.1834 154.953 29.9027 161.127 26.5171C168.361 22.5503 171.996 22.0237 178.484 24.0026L182.074 25.0977L177.287 26.0486C173.372 26.8263 165.074 29.6057 158.522 32.3345C157.854 32.6129 156.7 32.2266 155.947 31.4724ZM213.592 30.4379C213.592 30.0123 212.604 29.0964 211.397 28.4025L209.203 27.1409L212.141 27.6038C214.229 27.9326 215.268 27.7367 215.732 26.927C216.283 25.964 221.361 24.0371 223.386 24.0225C223.727 24.0198 223.449 25.0959 222.769 26.4132C221.167 29.5159 213.592 32.8382 213.592 30.4379ZM226.014 28.1041C224.871 26.2513 232.679 23.3831 235.995 24.4376C238.412 25.2061 236.797 26.5266 232.581 27.2287C230.694 27.5428 228.559 28.0525 227.835 28.3613C227.111 28.6701 226.292 28.5544 226.014 28.1041ZM251.492 22.2184C246.226 21.7988 241.819 21.3642 241.699 21.2526C240.985 20.5895 242.765 18.4308 244.68 17.6362C246.563 16.8549 247.431 16.9586 250.008 18.2728C252.521 19.5538 254.141 19.7668 258.808 19.4298C261.955 19.2026 265.545 19.2745 266.787 19.5894L269.046 20.1621L266.253 21.6569C264.717 22.4791 262.922 23.1134 262.264 23.0666C261.605 23.0197 256.758 22.638 251.492 22.2184ZM481.111 18.9518C477.191 16.9417 476.813 16.0301 479.892 16.013C481.099 16.0062 482.625 15.6126 483.283 15.1383C484.318 14.3927 484.304 14.3317 483.181 14.6884C482.466 14.9153 481.464 14.6823 480.953 14.171C480.247 13.4639 479.88 13.4765 479.419 14.2233C478.992 14.9147 478.116 14.9966 476.46 14.4997C472.252 13.2375 471.314 12.6771 471.314 11.4256C471.314 10.3656 472.369 10.2685 478.894 10.728C483.864 11.0779 486.475 10.9809 486.475 10.4463C486.475 8.87291 488.688 9.64984 489.275 11.4293L489.869 13.2277L490.222 11.4293C490.416 10.4402 491.089 9.63089 491.716 9.63089C492.344 9.63089 492.858 9.19927 492.858 8.67174C492.858 7.92574 493.071 7.92574 493.815 8.67174C494.372 9.22967 497.042 9.63089 500.198 9.63089C505.903 9.63089 507.243 10.6526 503.438 12.1016C501.461 12.8546 498.023 12.6416 494.254 11.5326C493.486 11.3066 492.86 11.4158 492.863 11.7751C492.868 12.5127 497.352 15.2259 498.565 15.2259C498.999 15.2259 499.859 15.7305 500.474 16.3472C501.435 17.3094 501.427 17.5327 500.417 17.9207C499.77 18.1694 499.241 17.9845 499.241 17.5097C499.241 16.9517 498.226 16.8373 496.37 17.1861C494.36 17.5639 493.662 17.4603 494.045 16.8404C494.345 16.3535 494.157 15.4314 493.627 14.7912C492.604 13.5563 489.666 13.1782 489.666 14.2814C489.666 14.6412 488.499 16.2279 487.073 17.8075L484.48 20.6794L481.111 18.9518ZM269.445 17.1934C268.062 16.38 266.105 16.1444 263.062 16.4248C260.217 16.687 258.03 16.461 256.846 15.7825C255.213 14.8472 255.612 14.7406 260.596 14.781C266.827 14.8316 269.564 13.4953 266.189 12.0499C264.586 11.3633 264.82 11.301 267.568 11.6823C271.155 12.1802 272.55 11.2173 270.595 9.59221C268.511 7.85936 270.803 7.3214 278.219 7.80272C282.808 8.10056 285.692 7.93351 286.871 7.30152C289.129 6.09079 288.243 4.5496 285.662 5.1986C283.878 5.64713 271.497 4.91111 272.019 4.38758C272.393 4.01345 289.934 2.38608 301.451 1.65701C307.426 1.27884 314.068 0.75131 316.213 0.484719L320.112 0L313.675 3.09708C307.64 6.0008 297.827 8.83161 293.795 8.83161C292.814 8.83161 289.992 9.91065 287.525 11.2295C285.058 12.5483 282.545 13.6273 281.94 13.6273C281.335 13.6273 278.725 14.7018 276.14 16.0151C273.555 17.3283 271.44 18.3946 271.44 18.3846C271.44 18.3746 270.542 17.8386 269.445 17.1934ZM253.886 9.89103C250.019 9.03388 249.877 8.71144 252.719 7.23607C256.861 5.08551 260.78 4.53431 262.563 5.8518C263.973 6.89488 263.892 7.05611 261.121 8.6939C258.233 10.4008 257.061 10.5948 253.886 9.89103Z" fill="url(#paint0_linear_1253_1402)"/>
<defs>
<linearGradient id="paint0_linear_1253_1402" x1="892.102" y1="52.3997" x2="323.862" y2="608.666" gradientUnits="userSpaceOnUse">
<stop/>
<stop offset="0.244792" stop-opacity="0.26"/>
<stop offset="0.53125" stop-opacity="0.69"/>
<stop offset="0.739583" stop-opacity="0.37"/>
<stop offset="1"/>
</linearGradient>
</defs>
</svg>
